<?xml version="1.0" encoding="UTF-8" standalone="no"?><svg xmlns="http://www.w3.org/2000/svg" xmlns:xlink="http://www.w3.org/1999/xlink" contentScriptType="application/ecmascript" contentStyleType="text/css" height="802px" preserveAspectRatio="none" style="width:4976px;height:802px;background:#FFFFFF;" version="1.1" viewBox="0 0 4976 802" width="4976px" zoomAndPan="magnify"><defs><filter height="300%" id="f105p6cf6ez3pk" width="300%" x="-1" y="-1"><feGaussianBlur result="blurOut" stdDeviation="2.0"/><feColorMatrix in="blurOut" result="blurOut2" type="matrix" values="0 0 0 0 0 0 0 0 0 0 0 0 0 0 0 0 0 0 .4 0"/><feOffset dx="4.0" dy="4.0" in="blurOut2" result="blurOut3"/><feBlend in="SourceGraphic" in2="blurOut3" mode="normal"/></filter></defs><g><!--MD5=[3fd616f346a44cd59a91eb10b19e157c]
class User--><rect codeLine="1" fill="#FEFECE" filter="url(#f105p6cf6ez3pk)" height="73.6094" id="User" style="stroke:#A80036;stroke-width:1.5;" width="197" x="11.5" y="51.5"/><ellipse cx="92.25" cy="67.5" fill="#B4A7E5" rx="11" ry="11" style="stroke:#A80036;stroke-width:1.0;"/><path d="M93.2031,64.2813 L94.9219,64.2813 C95.3125,64.2813 95.5,64.25 95.625,64.1719 C95.8906,64.0156 96.0313,63.7344 96.0313,63.4375 C96.0313,63.1719 95.9219,62.9063 95.6875,62.7344 C95.5156,62.625 95.375,62.5938 94.9219,62.5938 L89.7813,62.5938 C89.3438,62.5938 89.2188,62.6094 89.0625,62.7031 C88.8125,62.8594 88.6563,63.1563 88.6563,63.4375 C88.6563,63.7188 88.7969,63.9688 89.0156,64.1406 C89.1719,64.25 89.3594,64.2813 89.7813,64.2813 L91.5,64.2813 L91.5,70.7969 L89.7813,70.7969 C89.3438,70.7969 89.2188,70.8125 89.0625,70.9219 C88.8125,71.0781 88.6563,71.3594 88.6563,71.6563 C88.6563,71.9063 88.7969,72.1719 89.0156,72.3281 C89.1719,72.4531 89.375,72.5 89.7813,72.5 L94.9219,72.5 C95.6719,72.5 96.0313,72.2188 96.0313,71.6563 C96.0313,71.375 95.9219,71.125 95.6875,70.9531 C95.5156,70.8281 95.375,70.7969 94.9219,70.7969 L93.2031,70.7969 L93.2031,64.2813 Z " fill="#000000"/><text fill="#000000" font-family="sans-serif" font-size="12" font-style="italic" lengthAdjust="spacing" textLength="27" x="112.75" y="71.6543">User</text><line style="stroke:#A80036;stroke-width:1.5;" x1="12.5" x2="207.5" y1="83.5" y2="83.5"/><ellipse cx="22.5" cy="94.5" rx="3" ry="3" style="stroke:#038048;stroke-width:1.0;fill:none;"/><text fill="#000000" font-family="sans-serif" font-size="11" lengthAdjust="spacing" textLength="171" x="31.5" y="97.7104">username?: string | undefined</text><ellipse cx="22.5" cy="107.3047" rx="3" ry="3" style="stroke:#038048;stroke-width:1.0;fill:none;"/><text fill="#000000" font-family="sans-serif" font-size="11" lengthAdjust="spacing" textLength="145" x="31.5" y="110.5151">email?: string | undefined</text><line style="stroke:#A80036;stroke-width:1.5;" x1="12.5" x2="207.5" y1="117.1094" y2="117.1094"/><!--MD5=[56fbde2ff0757c7ae9d134861dd0e223]
class AuthResponse--><rect codeLine="5" fill="#FEFECE" filter="url(#f105p6cf6ez3pk)" height="60.8047" id="AuthResponse" style="stroke:#A80036;stroke-width:1.5;" width="171" x="243.5" y="58"/><ellipse cx="282.35" cy="74" fill="#B4A7E5" rx="11" ry="11" style="stroke:#A80036;stroke-width:1.0;"/><path d="M283.3031,70.7813 L285.0219,70.7813 C285.4125,70.7813 285.6,70.75 285.725,70.6719 C285.9906,70.5156 286.1313,70.2344 286.1313,69.9375 C286.1313,69.6719 286.0219,69.4063 285.7875,69.2344 C285.6156,69.125 285.475,69.0938 285.0219,69.0938 L279.8813,69.0938 C279.4438,69.0938 279.3188,69.1094 279.1625,69.2031 C278.9125,69.3594 278.7563,69.6563 278.7563,69.9375 C278.7563,70.2188 278.8969,70.4688 279.1156,70.6406 C279.2719,70.75 279.4594,70.7813 279.8813,70.7813 L281.6,70.7813 L281.6,77.2969 L279.8813,77.2969 C279.4438,77.2969 279.3188,77.3125 279.1625,77.4219 C278.9125,77.5781 278.7563,77.8594 278.7563,78.1563 C278.7563,78.4063 278.8969,78.6719 279.1156,78.8281 C279.2719,78.9531 279.475,79 279.8813,79 L285.0219,79 C285.7719,79 286.1313,78.7188 286.1313,78.1563 C286.1313,77.875 286.0219,77.625 285.7875,77.4531 C285.6156,77.3281 285.475,77.2969 285.0219,77.2969 L283.3031,77.2969 L283.3031,70.7813 Z " fill="#000000"/><text fill="#000000" font-family="sans-serif" font-size="12" font-style="italic" lengthAdjust="spacing" textLength="86" x="301.65" y="78.1543">AuthResponse</text><line style="stroke:#A80036;stroke-width:1.5;" x1="244.5" x2="413.5" y1="90" y2="90"/><ellipse cx="254.5" cy="101" rx="3" ry="3" style="stroke:#038048;stroke-width:1.0;fill:none;"/><text fill="#000000" font-family="sans-serif" font-size="11" lengthAdjust="spacing" textLength="145" x="263.5" y="104.2104">token?: string | undefined</text><line style="stroke:#A80036;stroke-width:1.5;" x1="244.5" x2="413.5" y1="110.8047" y2="110.8047"/><!--MD5=[b4f586f7c628b5a371c8c0ac9af5f898]
class AuthService--><rect codeLine="8" fill="#FEFECE" filter="url(#f105p6cf6ez3pk)" height="163.2422" id="AuthService" style="stroke:#A80036;stroke-width:1.5;" width="428" x="450" y="7"/><ellipse cx="623.75" cy="23" fill="#ADD1B2" rx="11" ry="11" style="stroke:#A80036;stroke-width:1.0;"/><path d="M626.0938,18.6719 C625.1563,18.2344 624.5625,18.0938 623.6875,18.0938 C621.0625,18.0938 619.0625,20.1719 619.0625,22.8906 L619.0625,24.0156 C619.0625,26.5938 621.1719,28.4844 624.0625,28.4844 C625.2813,28.4844 626.4375,28.1875 627.1875,27.6406 C627.7656,27.2344 628.0938,26.7813 628.0938,26.3906 C628.0938,25.9375 627.7031,25.5469 627.2344,25.5469 C627.0156,25.5469 626.8125,25.625 626.625,25.8125 C626.1719,26.2969 626.1719,26.2969 625.9844,26.3906 C625.5625,26.6563 624.875,26.7813 624.1094,26.7813 C622.0625,26.7813 620.7656,25.6875 620.7656,23.9844 L620.7656,22.8906 C620.7656,21.1094 622.0156,19.7969 623.75,19.7969 C624.3281,19.7969 624.9375,19.9531 625.4063,20.2031 C625.8906,20.4844 626.0625,20.7031 626.1563,21.1094 C626.2188,21.5156 626.25,21.6406 626.3906,21.7656 C626.5313,21.9063 626.7656,22.0156 626.9844,22.0156 C627.25,22.0156 627.5156,21.875 627.6875,21.6563 C627.7969,21.5 627.8281,21.3125 627.8281,20.8906 L627.8281,19.4688 C627.8281,19.0313 627.8125,18.9063 627.7188,18.75 C627.5625,18.4844 627.2813,18.3438 626.9844,18.3438 C626.6875,18.3438 626.4844,18.4375 626.2656,18.75 L626.0938,18.6719 Z " fill="#000000"/><text fill="#000000" font-family="sans-serif" font-size="12" lengthAdjust="spacing" textLength="72" x="644.25" y="27.1543">AuthService</text><line style="stroke:#A80036;stroke-width:1.5;" x1="451" x2="877" y1="39" y2="39"/><rect fill="none" height="6" style="stroke:#C82930;stroke-width:1.0;" width="6" x="458" y="47"/><text fill="#000000" font-family="sans-serif" font-size="11" lengthAdjust="spacing" textLength="107" x="470" y="53.2104">authBaseUrl: string</text><rect fill="none" height="6" style="stroke:#C82930;stroke-width:1.0;" width="6" x="458" y="59.8047"/><text fill="#000000" font-family="sans-serif" font-size="11" lengthAdjust="spacing" textLength="80" x="470" y="66.0151">_usuario: User</text><ellipse cx="461" cy="75.6094" rx="3" ry="3" style="stroke:#038048;stroke-width:1.0;fill:none;"/><text fill="#000000" font-family="sans-serif" font-size="11" lengthAdjust="spacing" textLength="396" x="470" y="78.8198">usuario: { username?: string | undefined; email?: string | undefined; }</text><rect fill="none" height="6" style="stroke:#C82930;stroke-width:1.0;" width="6" x="458" y="85.4141"/><text fill="#000000" font-family="sans-serif" font-size="11" lengthAdjust="spacing" textLength="85" x="470" y="91.6245">http: HttpClient</text><rect fill="none" height="6" style="stroke:#C82930;stroke-width:1.0;" width="6" x="458" y="98.2188"/><text fill="#000000" font-family="sans-serif" font-size="11" lengthAdjust="spacing" textLength="78" x="470" y="104.4292">router: Router</text><ellipse cx="461" cy="114.0234" rx="3" ry="3" style="stroke:#038048;stroke-width:1.0;fill:none;"/><text fill="#000000" font-family="sans-serif" font-size="11" lengthAdjust="spacing" textLength="101" x="470" y="117.2339">token: string | null</text><line style="stroke:#A80036;stroke-width:1.5;" x1="451" x2="877" y1="123.8281" y2="123.8281"/><ellipse cx="461" cy="134.8281" fill="#84BE84" rx="3" ry="3" style="stroke:#038048;stroke-width:1.0;"/><text fill="#000000" font-family="sans-serif" font-size="11" lengthAdjust="spacing" textLength="402" x="470" y="138.0386">login(username: string, password: string): Observable&lt;AuthResponse&gt;</text><ellipse cx="461" cy="147.6328" fill="#84BE84" rx="3" ry="3" style="stroke:#038048;stroke-width:1.0;"/><text fill="#000000" font-family="sans-serif" font-size="11" lengthAdjust="spacing" textLength="171" x="470" y="150.8433">logout(): Observable&lt;Object&gt;</text><ellipse cx="461" cy="160.4375" fill="#84BE84" rx="3" ry="3" style="stroke:#038048;stroke-width:1.0;"/><text fill="#000000" font-family="sans-serif" font-size="11" lengthAdjust="spacing" textLength="150" x="470" y="163.6479">isAuthenticated(): boolean</text><!--MD5=[ed2e19c57d02676cb5981586a05eca35]
class RegionService--><rect codeLine="19" fill="#FEFECE" filter="url(#f105p6cf6ez3pk)" height="112.0234" id="RegionService" style="stroke:#A80036;stroke-width:1.5;" width="210" x="913" y="32.5"/><ellipse cx="970.25" cy="48.5" fill="#ADD1B2" rx="11" ry="11" style="stroke:#A80036;stroke-width:1.0;"/><path d="M972.5938,44.1719 C971.6563,43.7344 971.0625,43.5938 970.1875,43.5938 C967.5625,43.5938 965.5625,45.6719 965.5625,48.3906 L965.5625,49.5156 C965.5625,52.0938 967.6719,53.9844 970.5625,53.9844 C971.7813,53.9844 972.9375,53.6875 973.6875,53.1406 C974.2656,52.7344 974.5938,52.2813 974.5938,51.8906 C974.5938,51.4375 974.2031,51.0469 973.7344,51.0469 C973.5156,51.0469 973.3125,51.125 973.125,51.3125 C972.6719,51.7969 972.6719,51.7969 972.4844,51.8906 C972.0625,52.1563 971.375,52.2813 970.6094,52.2813 C968.5625,52.2813 967.2656,51.1875 967.2656,49.4844 L967.2656,48.3906 C967.2656,46.6094 968.5156,45.2969 970.25,45.2969 C970.8281,45.2969 971.4375,45.4531 971.9063,45.7031 C972.3906,45.9844 972.5625,46.2031 972.6563,46.6094 C972.7188,47.0156 972.75,47.1406 972.8906,47.2656 C973.0313,47.4063 973.2656,47.5156 973.4844,47.5156 C973.75,47.5156 974.0156,47.375 974.1875,47.1563 C974.2969,47 974.3281,46.8125 974.3281,46.3906 L974.3281,44.9688 C974.3281,44.5313 974.3125,44.4063 974.2188,44.25 C974.0625,43.9844 973.7813,43.8438 973.4844,43.8438 C973.1875,43.8438 972.9844,43.9375 972.7656,44.25 L972.5938,44.1719 Z " fill="#000000"/><text fill="#000000" font-family="sans-serif" font-size="12" lengthAdjust="spacing" textLength="87" x="990.75" y="52.6543">RegionService</text><line style="stroke:#A80036;stroke-width:1.5;" x1="914" x2="1122" y1="64.5" y2="64.5"/><ellipse cx="924" cy="75.5" rx="3" ry="3" style="stroke:#038048;stroke-width:1.0;fill:none;"/><text fill="#000000" font-family="sans-serif" font-size="11" lengthAdjust="spacing" textLength="81" x="933" y="78.7104">baseUrl: string</text><rect fill="none" height="6" style="stroke:#C82930;stroke-width:1.0;" width="6" x="921" y="85.3047"/><text fill="#000000" font-family="sans-serif" font-size="11" lengthAdjust="spacing" textLength="125" x="933" y="91.5151">headers: HttpHeaders</text><rect fill="none" height="6" style="stroke:#C82930;stroke-width:1.0;" width="6" x="921" y="98.1094"/><text fill="#000000" font-family="sans-serif" font-size="11" lengthAdjust="spacing" textLength="85" x="933" y="104.3198">http: HttpClient</text><rect fill="none" height="6" style="stroke:#C82930;stroke-width:1.0;" width="6" x="921" y="110.9141"/><text fill="#000000" font-family="sans-serif" font-size="11" lengthAdjust="spacing" textLength="146" x="933" y="117.1245">authService: AuthService</text><line style="stroke:#A80036;stroke-width:1.5;" x1="914" x2="1122" y1="123.7188" y2="123.7188"/><ellipse cx="924" cy="134.7188" fill="#84BE84" rx="3" ry="3" style="stroke:#038048;stroke-width:1.0;"/><text fill="#000000" font-family="sans-serif" font-size="11" lengthAdjust="spacing" textLength="184" x="933" y="137.9292">getRegions(): Observable&lt;any&gt;</text><!--MD5=[bb8057f3d33257b6c5967824cd597e34]
class RegionComponent--><rect codeLine="26" fill="#FEFECE" filter="url(#f105p6cf6ez3pk)" height="124.8281" id="RegionComponent" style="stroke:#A80036;stroke-width:1.5;" width="202" x="2254" y="281"/><ellipse cx="2296" cy="297" fill="#ADD1B2" rx="11" ry="11" style="stroke:#A80036;stroke-width:1.0;"/><path d="M2298.3438,292.6719 C2297.4063,292.2344 2296.8125,292.0938 2295.9375,292.0938 C2293.3125,292.0938 2291.3125,294.1719 2291.3125,296.8906 L2291.3125,298.0156 C2291.3125,300.5938 2293.4219,302.4844 2296.3125,302.4844 C2297.5313,302.4844 2298.6875,302.1875 2299.4375,301.6406 C2300.0156,301.2344 2300.3438,300.7813 2300.3438,300.3906 C2300.3438,299.9375 2299.9531,299.5469 2299.4844,299.5469 C2299.2656,299.5469 2299.0625,299.625 2298.875,299.8125 C2298.4219,300.2969 2298.4219,300.2969 2298.2344,300.3906 C2297.8125,300.6563 2297.125,300.7813 2296.3594,300.7813 C2294.3125,300.7813 2293.0156,299.6875 2293.0156,297.9844 L2293.0156,296.8906 C2293.0156,295.1094 2294.2656,293.7969 2296,293.7969 C2296.5781,293.7969 2297.1875,293.9531 2297.6563,294.2031 C2298.1406,294.4844 2298.3125,294.7031 2298.4063,295.1094 C2298.4688,295.5156 2298.5,295.6406 2298.6406,295.7656 C2298.7813,295.9063 2299.0156,296.0156 2299.2344,296.0156 C2299.5,296.0156 2299.7656,295.875 2299.9375,295.6563 C2300.0469,295.5 2300.0781,295.3125 2300.0781,294.8906 L2300.0781,293.4688 C2300.0781,293.0313 2300.0625,292.9063 2299.9688,292.75 C2299.8125,292.4844 2299.5313,292.3438 2299.2344,292.3438 C2298.9375,292.3438 2298.7344,292.4375 2298.5156,292.75 L2298.3438,292.6719 Z " fill="#000000"/><text fill="#000000" font-family="sans-serif" font-size="12" lengthAdjust="spacing" textLength="110" x="2316" y="301.1543">RegionComponent</text><line style="stroke:#A80036;stroke-width:1.5;" x1="2255" x2="2455" y1="313" y2="313"/><ellipse cx="2265" cy="324" rx="3" ry="3" style="stroke:#038048;stroke-width:1.0;fill:none;"/><text fill="#000000" font-family="sans-serif" font-size="11" lengthAdjust="spacing" textLength="53" x="2274" y="327.2104">data: any</text><rect fill="none" height="6" style="stroke:#C82930;stroke-width:1.0;" width="6" x="2262" y="333.8047"/><text fill="#000000" font-family="sans-serif" font-size="11" lengthAdjust="spacing" textLength="176" x="2274" y="340.0151">locationservice: RegionService</text><rect fill="none" height="6" style="stroke:#C82930;stroke-width:1.0;" width="6" x="2262" y="346.6094"/><text fill="#000000" font-family="sans-serif" font-size="11" lengthAdjust="spacing" textLength="78" x="2274" y="352.8198">router: Router</text><line style="stroke:#A80036;stroke-width:1.5;" x1="2255" x2="2455" y1="359.4141" y2="359.4141"/><ellipse cx="2265" cy="370.4141" fill="#84BE84" rx="3" ry="3" style="stroke:#038048;stroke-width:1.0;"/><text fill="#000000" font-family="sans-serif" font-size="11" lengthAdjust="spacing" textLength="86" x="2274" y="373.6245">ngOnInit(): void</text><ellipse cx="2265" cy="383.2188" fill="#84BE84" rx="3" ry="3" style="stroke:#038048;stroke-width:1.0;"/><text fill="#000000" font-family="sans-serif" font-size="11" lengthAdjust="spacing" textLength="103" x="2274" y="386.4292">getRegions(): void</text><ellipse cx="2265" cy="396.0234" fill="#84BE84" rx="3" ry="3" style="stroke:#038048;stroke-width:1.0;"/><text fill="#000000" font-family="sans-serif" font-size="11" lengthAdjust="spacing" textLength="164" x="2274" y="399.2339">getRow(index: number): void</text><!--MD5=[102de254140a193826c5a7d2ce3cf539]
class OnInit--><rect fill="#FEFECE" filter="url(#f105p6cf6ez3pk)" height="48" id="OnInit" style="stroke:#A80036;stroke-width:1.5;" width="69" x="3583.5" y="64.5"/><ellipse cx="3598.5" cy="80.5" fill="#B4A7E5" rx="11" ry="11" style="stroke:#A80036;stroke-width:1.0;"/><path d="M3599.4531,77.2813 L3601.1719,77.2813 C3601.5625,77.2813 3601.75,77.25 3601.875,77.1719 C3602.1406,77.0156 3602.2813,76.7344 3602.2813,76.4375 C3602.2813,76.1719 3602.1719,75.9063 3601.9375,75.7344 C3601.7656,75.625 3601.625,75.5938 3601.1719,75.5938 L3596.0313,75.5938 C3595.5938,75.5938 3595.4688,75.6094 3595.3125,75.7031 C3595.0625,75.8594 3594.9063,76.1563 3594.9063,76.4375 C3594.9063,76.7188 3595.0469,76.9688 3595.2656,77.1406 C3595.4219,77.25 3595.6094,77.2813 3596.0313,77.2813 L3597.75,77.2813 L3597.75,83.7969 L3596.0313,83.7969 C3595.5938,83.7969 3595.4688,83.8125 3595.3125,83.9219 C3595.0625,84.0781 3594.9063,84.3594 3594.9063,84.6563 C3594.9063,84.9063 3595.0469,85.1719 3595.2656,85.3281 C3595.4219,85.4531 3595.625,85.5 3596.0313,85.5 L3601.1719,85.5 C3601.9219,85.5 3602.2813,85.2188 3602.2813,84.6563 C3602.2813,84.375 3602.1719,84.125 3601.9375,83.9531 C3601.7656,83.8281 3601.625,83.7969 3601.1719,83.7969 L3599.4531,83.7969 L3599.4531,77.2813 Z " fill="#000000"/><text fill="#000000" font-family="sans-serif" font-size="12" font-style="italic" lengthAdjust="spacing" textLength="37" x="3612.5" y="84.6543">OnInit</text><line style="stroke:#A80036;stroke-width:1.5;" x1="3584.5" x2="3651.5" y1="96.5" y2="96.5"/><line style="stroke:#A80036;stroke-width:1.5;" x1="3584.5" x2="3651.5" y1="104.5" y2="104.5"/><!--MD5=[bf49f0003ac6f1193da16321c5244cc7]
class TeamMember--><rect codeLine="34" fill="#FEFECE" filter="url(#f105p6cf6ez3pk)" height="86.4141" id="TeamMember" style="stroke:#A80036;stroke-width:1.5;" width="140" x="40" y="300.5"/><ellipse cx="66.7" cy="316.5" fill="#B4A7E5" rx="11" ry="11" style="stroke:#A80036;stroke-width:1.0;"/><path d="M67.6531,313.2813 L69.3719,313.2813 C69.7625,313.2813 69.95,313.25 70.075,313.1719 C70.3406,313.0156 70.4813,312.7344 70.4813,312.4375 C70.4813,312.1719 70.3719,311.9063 70.1375,311.7344 C69.9656,311.625 69.825,311.5938 69.3719,311.5938 L64.2313,311.5938 C63.7938,311.5938 63.6688,311.6094 63.5125,311.7031 C63.2625,311.8594 63.1063,312.1563 63.1063,312.4375 C63.1063,312.7188 63.2469,312.9688 63.4656,313.1406 C63.6219,313.25 63.8094,313.2813 64.2313,313.2813 L65.95,313.2813 L65.95,319.7969 L64.2313,319.7969 C63.7938,319.7969 63.6688,319.8125 63.5125,319.9219 C63.2625,320.0781 63.1063,320.3594 63.1063,320.6563 C63.1063,320.9063 63.2469,321.1719 63.4656,321.3281 C63.6219,321.4531 63.825,321.5 64.2313,321.5 L69.3719,321.5 C70.1219,321.5 70.4813,321.2188 70.4813,320.6563 C70.4813,320.375 70.3719,320.125 70.1375,319.9531 C69.9656,319.8281 69.825,319.7969 69.3719,319.7969 L67.6531,319.7969 L67.6531,313.2813 Z " fill="#000000"/><text fill="#000000" font-family="sans-serif" font-size="12" font-style="italic" lengthAdjust="spacing" textLength="82" x="83.3" y="320.6543">TeamMember</text><line style="stroke:#A80036;stroke-width:1.5;" x1="41" x2="179" y1="332.5" y2="332.5"/><ellipse cx="51" cy="343.5" rx="3" ry="3" style="stroke:#038048;stroke-width:1.0;fill:none;"/><text fill="#000000" font-family="sans-serif" font-size="11" lengthAdjust="spacing" textLength="61" x="60" y="346.7104">id: number</text><ellipse cx="51" cy="356.3047" rx="3" ry="3" style="stroke:#038048;stroke-width:1.0;fill:none;"/><text fill="#000000" font-family="sans-serif" font-size="11" lengthAdjust="spacing" textLength="86" x="60" y="359.5151">userId: number</text><ellipse cx="51" cy="369.1094" rx="3" ry="3" style="stroke:#038048;stroke-width:1.0;fill:none;"/><text fill="#000000" font-family="sans-serif" font-size="11" lengthAdjust="spacing" textLength="114" x="60" y="372.3198">pokemonId: number</text><line style="stroke:#A80036;stroke-width:1.5;" x1="41" x2="179" y1="378.9141" y2="378.9141"/><!--MD5=[4c86d4d5800c601a89978314cf2c1c7b]
class Pokemonid--><rect codeLine="39" fill="#FEFECE" filter="url(#f105p6cf6ez3pk)" height="124.8281" id="Pokemonid" style="stroke:#A80036;stroke-width:1.5;" width="1081" x="215.5" y="281"/><ellipse cx="718.75" cy="297" fill="#B4A7E5" rx="11" ry="11" style="stroke:#A80036;stroke-width:1.0;"/><path d="M719.7031,293.7813 L721.4219,293.7813 C721.8125,293.7813 722,293.75 722.125,293.6719 C722.3906,293.5156 722.5313,293.2344 722.5313,292.9375 C722.5313,292.6719 722.4219,292.4063 722.1875,292.2344 C722.0156,292.125 721.875,292.0938 721.4219,292.0938 L716.2813,292.0938 C715.8438,292.0938 715.7188,292.1094 715.5625,292.2031 C715.3125,292.3594 715.1563,292.6563 715.1563,292.9375 C715.1563,293.2188 715.2969,293.4688 715.5156,293.6406 C715.6719,293.75 715.8594,293.7813 716.2813,293.7813 L718,293.7813 L718,300.2969 L716.2813,300.2969 C715.8438,300.2969 715.7188,300.3125 715.5625,300.4219 C715.3125,300.5781 715.1563,300.8594 715.1563,301.1563 C715.1563,301.4063 715.2969,301.6719 715.5156,301.8281 C715.6719,301.9531 715.875,302 716.2813,302 L721.4219,302 C722.1719,302 722.5313,301.7188 722.5313,301.1563 C722.5313,300.875 722.4219,300.625 722.1875,300.4531 C722.0156,300.3281 721.875,300.2969 721.4219,300.2969 L719.7031,300.2969 L719.7031,293.7813 Z " fill="#000000"/><text fill="#000000" font-family="sans-serif" font-size="12" font-style="italic" lengthAdjust="spacing" textLength="66" x="739.25" y="301.1543">Pokemonid</text><line style="stroke:#A80036;stroke-width:1.5;" x1="216.5" x2="1295.5" y1="313" y2="313"/><ellipse cx="226.5" cy="324" rx="3" ry="3" style="stroke:#038048;stroke-width:1.0;fill:none;"/><text fill="#000000" font-family="sans-serif" font-size="11" lengthAdjust="spacing" textLength="61" x="235.5" y="327.2104">id: number</text><ellipse cx="226.5" cy="336.8047" rx="3" ry="3" style="stroke:#038048;stroke-width:1.0;fill:none;"/><text fill="#000000" font-family="sans-serif" font-size="11" lengthAdjust="spacing" textLength="71" x="235.5" y="340.0151">name: string</text><ellipse cx="226.5" cy="349.6094" rx="3" ry="3" style="stroke:#038048;stroke-width:1.0;fill:none;"/><text fill="#000000" font-family="sans-serif" font-size="11" lengthAdjust="spacing" textLength="1055" x="235.5" y="352.8198">sprites: { back_female: string; back_shiny_female: string; back_default: string; front_female: string; front_shiny_female: string; back_shiny: string; front_default: string; front_shiny: string; }</text><ellipse cx="226.5" cy="362.4141" rx="3" ry="3" style="stroke:#038048;stroke-width:1.0;fill:none;"/><text fill="#000000" font-family="sans-serif" font-size="11" lengthAdjust="spacing" textLength="87" x="235.5" y="365.6245">height: number</text><ellipse cx="226.5" cy="375.2188" rx="3" ry="3" style="stroke:#038048;stroke-width:1.0;fill:none;"/><text fill="#000000" font-family="sans-serif" font-size="11" lengthAdjust="spacing" textLength="89" x="235.5" y="378.4292">weight: number</text><ellipse cx="226.5" cy="388.0234" rx="3" ry="3" style="stroke:#038048;stroke-width:1.0;fill:none;"/><text fill="#000000" font-family="sans-serif" font-size="11" lengthAdjust="spacing" textLength="378" x="235.5" y="391.2339">types: [{ slot: number; type: {    "name": string;    "url": string;}; }]</text><line style="stroke:#A80036;stroke-width:1.5;" x1="216.5" x2="1295.5" y1="397.8281" y2="397.8281"/><!--MD5=[63e73b5819d58611d90defc2e20867d7]
class PokemonService--><rect codeLine="47" fill="#FEFECE" filter="url(#f105p6cf6ez3pk)" height="163.2422" id="PokemonService" style="stroke:#A80036;stroke-width:1.5;" width="551" x="1331.5" y="262"/><ellipse cx="1552.25" cy="278" fill="#ADD1B2" rx="11" ry="11" style="stroke:#A80036;stroke-width:1.0;"/><path d="M1554.5938,273.6719 C1553.6563,273.2344 1553.0625,273.0938 1552.1875,273.0938 C1549.5625,273.0938 1547.5625,275.1719 1547.5625,277.8906 L1547.5625,279.0156 C1547.5625,281.5938 1549.6719,283.4844 1552.5625,283.4844 C1553.7813,283.4844 1554.9375,283.1875 1555.6875,282.6406 C1556.2656,282.2344 1556.5938,281.7813 1556.5938,281.3906 C1556.5938,280.9375 1556.2031,280.5469 1555.7344,280.5469 C1555.5156,280.5469 1555.3125,280.625 1555.125,280.8125 C1554.6719,281.2969 1554.6719,281.2969 1554.4844,281.3906 C1554.0625,281.6563 1553.375,281.7813 1552.6094,281.7813 C1550.5625,281.7813 1549.2656,280.6875 1549.2656,278.9844 L1549.2656,277.8906 C1549.2656,276.1094 1550.5156,274.7969 1552.25,274.7969 C1552.8281,274.7969 1553.4375,274.9531 1553.9063,275.2031 C1554.3906,275.4844 1554.5625,275.7031 1554.6563,276.1094 C1554.7188,276.5156 1554.75,276.6406 1554.8906,276.7656 C1555.0313,276.9063 1555.2656,277.0156 1555.4844,277.0156 C1555.75,277.0156 1556.0156,276.875 1556.1875,276.6563 C1556.2969,276.5 1556.3281,276.3125 1556.3281,275.8906 L1556.3281,274.4688 C1556.3281,274.0313 1556.3125,273.9063 1556.2188,273.75 C1556.0625,273.4844 1555.7813,273.3438 1555.4844,273.3438 C1555.1875,273.3438 1554.9844,273.4375 1554.7656,273.75 L1554.5938,273.6719 Z " fill="#000000"/><text fill="#000000" font-family="sans-serif" font-size="12" lengthAdjust="spacing" textLength="101" x="1572.75" y="282.1543">PokemonService</text><line style="stroke:#A80036;stroke-width:1.5;" x1="1332.5" x2="1881.5" y1="294" y2="294"/><rect fill="none" height="6" style="stroke:#C82930;stroke-width:1.0;" width="6" x="1339.5" y="302"/><text fill="#000000" font-family="sans-serif" font-size="11" lengthAdjust="spacing" textLength="81" x="1351.5" y="308.2104">baseUrl: string</text><rect fill="none" height="6" style="stroke:#C82930;stroke-width:1.0;" width="6" x="1339.5" y="314.8047"/><text fill="#000000" font-family="sans-serif" font-size="11" lengthAdjust="spacing" textLength="125" x="1351.5" y="321.0151">headers: HttpHeaders</text><rect fill="none" height="6" style="stroke:#C82930;stroke-width:1.0;" width="6" x="1339.5" y="327.6094"/><text fill="#000000" font-family="sans-serif" font-size="11" lengthAdjust="spacing" textLength="85" x="1351.5" y="333.8198">http: HttpClient</text><rect fill="none" height="6" style="stroke:#C82930;stroke-width:1.0;" width="6" x="1339.5" y="340.4141"/><text fill="#000000" font-family="sans-serif" font-size="11" lengthAdjust="spacing" textLength="146" x="1351.5" y="346.6245">authService: AuthService</text><line style="stroke:#A80036;stroke-width:1.5;" x1="1332.5" x2="1881.5" y1="353.2188" y2="353.2188"/><ellipse cx="1342.5" cy="364.2188" fill="#84BE84" rx="3" ry="3" style="stroke:#038048;stroke-width:1.0;"/><text fill="#000000" font-family="sans-serif" font-size="11" lengthAdjust="spacing" textLength="321" x="1351.5" y="367.4292">getPokemons(index: number): Observable&lt;Pokemonid&gt;</text><ellipse cx="1342.5" cy="377.0234" fill="#84BE84" rx="3" ry="3" style="stroke:#038048;stroke-width:1.0;"/><text fill="#000000" font-family="sans-serif" font-size="11" lengthAdjust="spacing" textLength="313" x="1351.5" y="380.2339">getMyTeamPokemons(): Observable&lt;TeamMember[]&gt;</text><ellipse cx="1342.5" cy="389.8281" fill="#84BE84" rx="3" ry="3" style="stroke:#038048;stroke-width:1.0;"/><text fill="#000000" font-family="sans-serif" font-size="11" lengthAdjust="spacing" textLength="487" x="1351.5" y="393.0386">addPokemonToMyTeamPokemons(pokemonId: number): Observable&lt;TeamMember&gt;</text><ellipse cx="1342.5" cy="402.6328" fill="#84BE84" rx="3" ry="3" style="stroke:#038048;stroke-width:1.0;"/><text fill="#000000" font-family="sans-serif" font-size="11" lengthAdjust="spacing" textLength="525" x="1351.5" y="405.8433">removePokemonFromMyTeamPokemons(pokemonId: number): Observable&lt;TeamMember&gt;</text><ellipse cx="1342.5" cy="415.4375" fill="#84BE84" rx="3" ry="3" style="stroke:#038048;stroke-width:1.0;"/><text fill="#000000" font-family="sans-serif" font-size="11" lengthAdjust="spacing" textLength="140" x="1351.5" y="418.6479">isThereSpace(): boolean</text><!--MD5=[fbb64853b049e5b1f83c372618c726b6]
class PokeDetailComponent--><rect codeLine="58" fill="#FEFECE" filter="url(#f105p6cf6ez3pk)" height="124.8281" id="PokeDetailComponent" style="stroke:#A80036;stroke-width:1.5;" width="226" x="2491" y="281"/><ellipse cx="2533.9" cy="297" fill="#ADD1B2" rx="11" ry="11" style="stroke:#A80036;stroke-width:1.0;"/><path d="M2536.2438,292.6719 C2535.3063,292.2344 2534.7125,292.0938 2533.8375,292.0938 C2531.2125,292.0938 2529.2125,294.1719 2529.2125,296.8906 L2529.2125,298.0156 C2529.2125,300.5938 2531.3219,302.4844 2534.2125,302.4844 C2535.4313,302.4844 2536.5875,302.1875 2537.3375,301.6406 C2537.9156,301.2344 2538.2438,300.7813 2538.2438,300.3906 C2538.2438,299.9375 2537.8531,299.5469 2537.3844,299.5469 C2537.1656,299.5469 2536.9625,299.625 2536.775,299.8125 C2536.3219,300.2969 2536.3219,300.2969 2536.1344,300.3906 C2535.7125,300.6563 2535.025,300.7813 2534.2594,300.7813 C2532.2125,300.7813 2530.9156,299.6875 2530.9156,297.9844 L2530.9156,296.8906 C2530.9156,295.1094 2532.1656,293.7969 2533.9,293.7969 C2534.4781,293.7969 2535.0875,293.9531 2535.5563,294.2031 C2536.0406,294.4844 2536.2125,294.7031 2536.3063,295.1094 C2536.3688,295.5156 2536.4,295.6406 2536.5406,295.7656 C2536.6813,295.9063 2536.9156,296.0156 2537.1344,296.0156 C2537.4,296.0156 2537.6656,295.875 2537.8375,295.6563 C2537.9469,295.5 2537.9781,295.3125 2537.9781,294.8906 L2537.9781,293.4688 C2537.9781,293.0313 2537.9625,292.9063 2537.8688,292.75 C2537.7125,292.4844 2537.4313,292.3438 2537.1344,292.3438 C2536.8375,292.3438 2536.6344,292.4375 2536.4156,292.75 L2536.2438,292.6719 Z " fill="#000000"/><text fill="#000000" font-family="sans-serif" font-size="12" lengthAdjust="spacing" textLength="132" x="2554.1" y="301.1543">PokeDetailComponent</text><line style="stroke:#A80036;stroke-width:1.5;" x1="2492" x2="2716" y1="313" y2="313"/><ellipse cx="2502" cy="324" rx="3" ry="3" style="stroke:#038048;stroke-width:1.0;fill:none;"/><text fill="#000000" font-family="sans-serif" font-size="11" lengthAdjust="spacing" textLength="81" x="2511" y="327.2104">pokemon: any</text><ellipse cx="2502" cy="336.8047" rx="3" ry="3" style="stroke:#038048;stroke-width:1.0;fill:none;"/><text fill="#000000" font-family="sans-serif" font-size="11" lengthAdjust="spacing" textLength="112" x="2511" y="340.0151">pokemonImg: string</text><rect fill="none" height="6" style="stroke:#C82930;stroke-width:1.0;" width="6" x="2499" y="346.6094"/><text fill="#000000" font-family="sans-serif" font-size="11" lengthAdjust="spacing" textLength="200" x="2511" y="352.8198">pokemonService: PokemonService</text><rect fill="none" height="6" style="stroke:#C82930;stroke-width:1.0;" width="6" x="2499" y="359.4141"/><text fill="#000000" font-family="sans-serif" font-size="11" lengthAdjust="spacing" textLength="184" x="2511" y="365.6245">activatedRouter: ActivatedRoute</text><line style="stroke:#A80036;stroke-width:1.5;" x1="2492" x2="2716" y1="372.2188" y2="372.2188"/><ellipse cx="2502" cy="383.2188" fill="#84BE84" rx="3" ry="3" style="stroke:#038048;stroke-width:1.0;"/><text fill="#000000" font-family="sans-serif" font-size="11" lengthAdjust="spacing" textLength="86" x="2511" y="386.4292">ngOnInit(): void</text><ellipse cx="2502" cy="396.0234" fill="#84BE84" rx="3" ry="3" style="stroke:#038048;stroke-width:1.0;"/><text fill="#000000" font-family="sans-serif" font-size="11" lengthAdjust="spacing" textLength="148" x="2511" y="399.2339">getPokemon(id: any): void</text><!--MD5=[6fb7ff3257976434a67458e3f3484b4f]
class MyTeamComponent--><rect codeLine="66" fill="#FEFECE" filter="url(#f105p6cf6ez3pk)" height="124.8281" id="MyTeamComponent" style="stroke:#A80036;stroke-width:1.5;" width="319" x="2752.5" y="281"/><ellipse cx="2848.25" cy="297" fill="#ADD1B2" rx="11" ry="11" style="stroke:#A80036;stroke-width:1.0;"/><path d="M2850.5938,292.6719 C2849.6563,292.2344 2849.0625,292.0938 2848.1875,292.0938 C2845.5625,292.0938 2843.5625,294.1719 2843.5625,296.8906 L2843.5625,298.0156 C2843.5625,300.5938 2845.6719,302.4844 2848.5625,302.4844 C2849.7813,302.4844 2850.9375,302.1875 2851.6875,301.6406 C2852.2656,301.2344 2852.5938,300.7813 2852.5938,300.3906 C2852.5938,299.9375 2852.2031,299.5469 2851.7344,299.5469 C2851.5156,299.5469 2851.3125,299.625 2851.125,299.8125 C2850.6719,300.2969 2850.6719,300.2969 2850.4844,300.3906 C2850.0625,300.6563 2849.375,300.7813 2848.6094,300.7813 C2846.5625,300.7813 2845.2656,299.6875 2845.2656,297.9844 L2845.2656,296.8906 C2845.2656,295.1094 2846.5156,293.7969 2848.25,293.7969 C2848.8281,293.7969 2849.4375,293.9531 2849.9063,294.2031 C2850.3906,294.4844 2850.5625,294.7031 2850.6563,295.1094 C2850.7188,295.5156 2850.75,295.6406 2850.8906,295.7656 C2851.0313,295.9063 2851.2656,296.0156 2851.4844,296.0156 C2851.75,296.0156 2852.0156,295.875 2852.1875,295.6563 C2852.2969,295.5 2852.3281,295.3125 2852.3281,294.8906 L2852.3281,293.4688 C2852.3281,293.0313 2852.3125,292.9063 2852.2188,292.75 C2852.0625,292.4844 2851.7813,292.3438 2851.4844,292.3438 C2851.1875,292.3438 2850.9844,292.4375 2850.7656,292.75 L2850.5938,292.6719 Z " fill="#000000"/><text fill="#000000" font-family="sans-serif" font-size="12" lengthAdjust="spacing" textLength="119" x="2868.75" y="301.1543">MyTeamComponent</text><line style="stroke:#A80036;stroke-width:1.5;" x1="2753.5" x2="3070.5" y1="313" y2="313"/><ellipse cx="2763.5" cy="324" rx="3" ry="3" style="stroke:#038048;stroke-width:1.0;fill:none;"/><text fill="#000000" font-family="sans-serif" font-size="11" lengthAdjust="spacing" textLength="216" x="2772.5" y="327.2104">pokemonTeamMembers: Pokemonid[]</text><rect fill="none" height="6" style="stroke:#C82930;stroke-width:1.0;" width="6" x="2760.5" y="333.8047"/><text fill="#000000" font-family="sans-serif" font-size="11" lengthAdjust="spacing" textLength="200" x="2772.5" y="340.0151">pokemonService: PokemonService</text><line style="stroke:#A80036;stroke-width:1.5;" x1="2753.5" x2="3070.5" y1="346.6094" y2="346.6094"/><ellipse cx="2763.5" cy="357.6094" fill="#84BE84" rx="3" ry="3" style="stroke:#038048;stroke-width:1.0;"/><text fill="#000000" font-family="sans-serif" font-size="11" lengthAdjust="spacing" textLength="86" x="2772.5" y="360.8198">ngOnInit(): void</text><ellipse cx="2763.5" cy="370.4141" fill="#84BE84" rx="3" ry="3" style="stroke:#038048;stroke-width:1.0;"/><text fill="#000000" font-family="sans-serif" font-size="11" lengthAdjust="spacing" textLength="206" x="2772.5" y="373.6245">removeFromTeam(id: number): void</text><ellipse cx="2763.5" cy="383.2188" fill="#84BE84" rx="3" ry="3" style="stroke:#038048;stroke-width:1.0;"/><text fill="#000000" font-family="sans-serif" font-size="11" lengthAdjust="spacing" textLength="107" x="2772.5" y="386.4292">getMyTeam(): void</text><ellipse cx="2763.5" cy="396.0234" fill="#84BE84" rx="3" ry="3" style="stroke:#038048;stroke-width:1.0;"/><text fill="#000000" font-family="sans-serif" font-size="11" lengthAdjust="spacing" textLength="293" x="2772.5" y="399.2339">getPokemon(id: number): Observable&lt;Pokemonid&gt;</text><!--MD5=[9e099e66728dcfa2e7ac95719b526542]
class PokeTableComponent--><rect codeLine="74" fill="#FEFECE" filter="url(#f105p6cf6ez3pk)" height="227.2656" id="PokeTableComponent" style="stroke:#A80036;stroke-width:1.5;" width="256" x="3107" y="230"/><ellipse cx="3165.25" cy="246" fill="#ADD1B2" rx="11" ry="11" style="stroke:#A80036;stroke-width:1.0;"/><path d="M3167.5938,241.6719 C3166.6563,241.2344 3166.0625,241.0938 3165.1875,241.0938 C3162.5625,241.0938 3160.5625,243.1719 3160.5625,245.8906 L3160.5625,247.0156 C3160.5625,249.5938 3162.6719,251.4844 3165.5625,251.4844 C3166.7813,251.4844 3167.9375,251.1875 3168.6875,250.6406 C3169.2656,250.2344 3169.5938,249.7813 3169.5938,249.3906 C3169.5938,248.9375 3169.2031,248.5469 3168.7344,248.5469 C3168.5156,248.5469 3168.3125,248.625 3168.125,248.8125 C3167.6719,249.2969 3167.6719,249.2969 3167.4844,249.3906 C3167.0625,249.6563 3166.375,249.7813 3165.6094,249.7813 C3163.5625,249.7813 3162.2656,248.6875 3162.2656,246.9844 L3162.2656,245.8906 C3162.2656,244.1094 3163.5156,242.7969 3165.25,242.7969 C3165.8281,242.7969 3166.4375,242.9531 3166.9063,243.2031 C3167.3906,243.4844 3167.5625,243.7031 3167.6563,244.1094 C3167.7188,244.5156 3167.75,244.6406 3167.8906,244.7656 C3168.0313,244.9063 3168.2656,245.0156 3168.4844,245.0156 C3168.75,245.0156 3169.0156,244.875 3169.1875,244.6563 C3169.2969,244.5 3169.3281,244.3125 3169.3281,243.8906 L3169.3281,242.4688 C3169.3281,242.0313 3169.3125,241.9063 3169.2188,241.75 C3169.0625,241.4844 3168.7813,241.3438 3168.4844,241.3438 C3168.1875,241.3438 3167.9844,241.4375 3167.7656,241.75 L3167.5938,241.6719 Z " fill="#000000"/><text fill="#000000" font-family="sans-serif" font-size="12" lengthAdjust="spacing" textLength="131" x="3185.75" y="250.1543">PokeTableComponent</text><line style="stroke:#A80036;stroke-width:1.5;" x1="3108" x2="3362" y1="262" y2="262"/><ellipse cx="3118" cy="273" rx="3" ry="3" style="stroke:#038048;stroke-width:1.0;fill:none;"/><text fill="#000000" font-family="sans-serif" font-size="11" lengthAdjust="spacing" textLength="150" x="3127" y="276.2104">displayedColumns: string[]</text><ellipse cx="3118" cy="285.8047" rx="3" ry="3" style="stroke:#038048;stroke-width:1.0;fill:none;"/><text fill="#000000" font-family="sans-serif" font-size="11" lengthAdjust="spacing" textLength="102" x="3127" y="289.0151">data: Pokemonid[]</text><ellipse cx="3118" cy="298.6094" rx="3" ry="3" style="stroke:#038048;stroke-width:1.0;fill:none;"/><text fill="#000000" font-family="sans-serif" font-size="11" lengthAdjust="spacing" textLength="230" x="3127" y="301.8198">dataSource: MatTableDataSource&lt;any&gt;</text><ellipse cx="3118" cy="311.4141" rx="3" ry="3" style="stroke:#038048;stroke-width:1.0;fill:none;"/><text fill="#000000" font-family="sans-serif" font-size="11" lengthAdjust="spacing" textLength="108" x="3127" y="314.6245">pokemons: never[]</text><ellipse cx="3118" cy="324.2188" rx="3" ry="3" style="stroke:#038048;stroke-width:1.0;fill:none;"/><text fill="#000000" font-family="sans-serif" font-size="11" lengthAdjust="spacing" textLength="132" x="3127" y="327.4292">paginator: MatPaginator</text><ellipse cx="3118" cy="337.0234" rx="3" ry="3" style="stroke:#038048;stroke-width:1.0;fill:none;"/><text fill="#000000" font-family="sans-serif" font-size="11" lengthAdjust="spacing" textLength="98" x="3127" y="340.2339">table: Pokemonid</text><ellipse cx="3118" cy="349.8281" rx="3" ry="3" style="stroke:#038048;stroke-width:1.0;fill:none;"/><text fill="#000000" font-family="sans-serif" font-size="11" lengthAdjust="spacing" textLength="216" x="3127" y="353.0386">pokemonTeamMembers: Pokemonid[]</text><rect fill="none" height="6" style="stroke:#C82930;stroke-width:1.0;" width="6" x="3115" y="359.6328"/><text fill="#000000" font-family="sans-serif" font-size="11" lengthAdjust="spacing" textLength="175" x="3127" y="365.8433">pokeService: PokemonService</text><rect fill="none" height="6" style="stroke:#C82930;stroke-width:1.0;" width="6" x="3115" y="372.4375"/><text fill="#000000" font-family="sans-serif" font-size="11" lengthAdjust="spacing" textLength="78" x="3127" y="378.6479">router: Router</text><line style="stroke:#A80036;stroke-width:1.5;" x1="3108" x2="3362" y1="385.2422" y2="385.2422"/><ellipse cx="3118" cy="396.2422" fill="#84BE84" rx="3" ry="3" style="stroke:#038048;stroke-width:1.0;"/><text fill="#000000" font-family="sans-serif" font-size="11" lengthAdjust="spacing" textLength="86" x="3127" y="399.4526">ngOnInit(): void</text><ellipse cx="3118" cy="409.0469" fill="#84BE84" rx="3" ry="3" style="stroke:#038048;stroke-width:1.0;"/><text fill="#000000" font-family="sans-serif" font-size="11" lengthAdjust="spacing" textLength="116" x="3127" y="412.2573">getPokemons(): void</text><ellipse cx="3118" cy="421.8516" fill="#84BE84" rx="3" ry="3" style="stroke:#038048;stroke-width:1.0;"/><text fill="#000000" font-family="sans-serif" font-size="11" lengthAdjust="spacing" textLength="172" x="3127" y="425.062">applyFilter(event: Event): void</text><ellipse cx="3118" cy="434.6563" fill="#84BE84" rx="3" ry="3" style="stroke:#038048;stroke-width:1.0;"/><text fill="#000000" font-family="sans-serif" font-size="11" lengthAdjust="spacing" textLength="142" x="3127" y="437.8667">getRow(id: number): void</text><ellipse cx="3118" cy="447.4609" fill="#84BE84" rx="3" ry="3" style="stroke:#038048;stroke-width:1.0;"/><text fill="#000000" font-family="sans-serif" font-size="11" lengthAdjust="spacing" textLength="220" x="3127" y="450.6714">addPokemonToTeam(id: number): void</text><!--MD5=[e937ec3a0610c8ab948fa9a7a6481938]
class LocationsService--><rect codeLine="90" fill="#FEFECE" filter="url(#f105p6cf6ez3pk)" height="86.4141" id="LocationsService" style="stroke:#A80036;stroke-width:1.5;" width="301" x="1917.5" y="300.5"/><ellipse cx="2012.25" cy="316.5" fill="#ADD1B2" rx="11" ry="11" style="stroke:#A80036;stroke-width:1.0;"/><path d="M2014.5938,312.1719 C2013.6563,311.7344 2013.0625,311.5938 2012.1875,311.5938 C2009.5625,311.5938 2007.5625,313.6719 2007.5625,316.3906 L2007.5625,317.5156 C2007.5625,320.0938 2009.6719,321.9844 2012.5625,321.9844 C2013.7813,321.9844 2014.9375,321.6875 2015.6875,321.1406 C2016.2656,320.7344 2016.5938,320.2813 2016.5938,319.8906 C2016.5938,319.4375 2016.2031,319.0469 2015.7344,319.0469 C2015.5156,319.0469 2015.3125,319.125 2015.125,319.3125 C2014.6719,319.7969 2014.6719,319.7969 2014.4844,319.8906 C2014.0625,320.1563 2013.375,320.2813 2012.6094,320.2813 C2010.5625,320.2813 2009.2656,319.1875 2009.2656,317.4844 L2009.2656,316.3906 C2009.2656,314.6094 2010.5156,313.2969 2012.25,313.2969 C2012.8281,313.2969 2013.4375,313.4531 2013.9063,313.7031 C2014.3906,313.9844 2014.5625,314.2031 2014.6563,314.6094 C2014.7188,315.0156 2014.75,315.1406 2014.8906,315.2656 C2015.0313,315.4063 2015.2656,315.5156 2015.4844,315.5156 C2015.75,315.5156 2016.0156,315.375 2016.1875,315.1563 C2016.2969,315 2016.3281,314.8125 2016.3281,314.3906 L2016.3281,312.9688 C2016.3281,312.5313 2016.3125,312.4063 2016.2188,312.25 C2016.0625,311.9844 2015.7813,311.8438 2015.4844,311.8438 C2015.1875,311.8438 2014.9844,311.9375 2014.7656,312.25 L2014.5938,312.1719 Z " fill="#000000"/><text fill="#000000" font-family="sans-serif" font-size="12" lengthAdjust="spacing" textLength="103" x="2032.75" y="320.6543">LocationsService</text><line style="stroke:#A80036;stroke-width:1.5;" x1="1918.5" x2="2217.5" y1="332.5" y2="332.5"/><ellipse cx="1928.5" cy="343.5" rx="3" ry="3" style="stroke:#038048;stroke-width:1.0;fill:none;"/><text fill="#000000" font-family="sans-serif" font-size="11" lengthAdjust="spacing" textLength="81" x="1937.5" y="346.7104">baseUrl: string</text><rect fill="none" height="6" style="stroke:#C82930;stroke-width:1.0;" width="6" x="1925.5" y="353.3047"/><text fill="#000000" font-family="sans-serif" font-size="11" lengthAdjust="spacing" textLength="85" x="1937.5" y="359.5151">http: HttpClient</text><line style="stroke:#A80036;stroke-width:1.5;" x1="1918.5" x2="2217.5" y1="366.1094" y2="366.1094"/><ellipse cx="1928.5" cy="377.1094" fill="#84BE84" rx="3" ry="3" style="stroke:#038048;stroke-width:1.0;"/><text fill="#000000" font-family="sans-serif" font-size="11" lengthAdjust="spacing" textLength="275" x="1937.5" y="380.3198">getLocations(index: number): Observable&lt;any&gt;</text><!--MD5=[0db682a46db2f8aac4c4e587bd9a1c7a]
class LocationComponent--><rect codeLine="95" fill="#FEFECE" filter="url(#f105p6cf6ez3pk)" height="112.0234" id="LocationComponent" style="stroke:#A80036;stroke-width:1.5;" width="210" x="3398" y="287.5"/><ellipse cx="3439.55" cy="303.5" fill="#ADD1B2" rx="11" ry="11" style="stroke:#A80036;stroke-width:1.0;"/><path d="M3441.8938,299.1719 C3440.9563,298.7344 3440.3625,298.5938 3439.4875,298.5938 C3436.8625,298.5938 3434.8625,300.6719 3434.8625,303.3906 L3434.8625,304.5156 C3434.8625,307.0938 3436.9719,308.9844 3439.8625,308.9844 C3441.0813,308.9844 3442.2375,308.6875 3442.9875,308.1406 C3443.5656,307.7344 3443.8938,307.2813 3443.8938,306.8906 C3443.8938,306.4375 3443.5031,306.0469 3443.0344,306.0469 C3442.8156,306.0469 3442.6125,306.125 3442.425,306.3125 C3441.9719,306.7969 3441.9719,306.7969 3441.7844,306.8906 C3441.3625,307.1563 3440.675,307.2813 3439.9094,307.2813 C3437.8625,307.2813 3436.5656,306.1875 3436.5656,304.4844 L3436.5656,303.3906 C3436.5656,301.6094 3437.8156,300.2969 3439.55,300.2969 C3440.1281,300.2969 3440.7375,300.4531 3441.2063,300.7031 C3441.6906,300.9844 3441.8625,301.2031 3441.9563,301.6094 C3442.0188,302.0156 3442.05,302.1406 3442.1906,302.2656 C3442.3313,302.4063 3442.5656,302.5156 3442.7844,302.5156 C3443.05,302.5156 3443.3156,302.375 3443.4875,302.1563 C3443.5969,302 3443.6281,301.8125 3443.6281,301.3906 L3443.6281,299.9688 C3443.6281,299.5313 3443.6125,299.4063 3443.5188,299.25 C3443.3625,298.9844 3443.0813,298.8438 3442.7844,298.8438 C3442.4875,298.8438 3442.2844,298.9375 3442.0656,299.25 L3441.8938,299.1719 Z " fill="#000000"/><text fill="#000000" font-family="sans-serif" font-size="12" lengthAdjust="spacing" textLength="119" x="3459.45" y="307.6543">LocationComponent</text><line style="stroke:#A80036;stroke-width:1.5;" x1="3399" x2="3607" y1="319.5" y2="319.5"/><ellipse cx="3409" cy="330.5" rx="3" ry="3" style="stroke:#038048;stroke-width:1.0;fill:none;"/><text fill="#000000" font-family="sans-serif" font-size="11" lengthAdjust="spacing" textLength="72" x="3418" y="333.7104">location: any</text><rect fill="none" height="6" style="stroke:#C82930;stroke-width:1.0;" width="6" x="3406" y="340.3047"/><text fill="#000000" font-family="sans-serif" font-size="11" lengthAdjust="spacing" textLength="154" x="3418" y="346.5151">locations: LocationsService</text><rect fill="none" height="6" style="stroke:#C82930;stroke-width:1.0;" width="6" x="3406" y="353.1094"/><text fill="#000000" font-family="sans-serif" font-size="11" lengthAdjust="spacing" textLength="184" x="3418" y="359.3198">activatedRouter: ActivatedRoute</text><line style="stroke:#A80036;stroke-width:1.5;" x1="3399" x2="3607" y1="365.9141" y2="365.9141"/><ellipse cx="3409" cy="376.9141" fill="#84BE84" rx="3" ry="3" style="stroke:#038048;stroke-width:1.0;"/><text fill="#000000" font-family="sans-serif" font-size="11" lengthAdjust="spacing" textLength="86" x="3418" y="380.1245">ngOnInit(): void</text><ellipse cx="3409" cy="389.7188" fill="#84BE84" rx="3" ry="3" style="stroke:#038048;stroke-width:1.0;"/><text fill="#000000" font-family="sans-serif" font-size="11" lengthAdjust="spacing" textLength="149" x="3418" y="392.9292">getLocations(id: any): void</text><!--MD5=[7dbec9bceb5bbd8dab1ed1d6eebea0dc]
class BerryService--><rect codeLine="102" fill="#FEFECE" filter="url(#f105p6cf6ez3pk)" height="112.0234" id="BerryService" style="stroke:#A80036;stroke-width:1.5;" width="206" x="7" y="523.5"/><ellipse cx="66.25" cy="539.5" fill="#ADD1B2" rx="11" ry="11" style="stroke:#A80036;stroke-width:1.0;"/><path d="M68.5938,535.1719 C67.6563,534.7344 67.0625,534.5938 66.1875,534.5938 C63.5625,534.5938 61.5625,536.6719 61.5625,539.3906 L61.5625,540.5156 C61.5625,543.0938 63.6719,544.9844 66.5625,544.9844 C67.7813,544.9844 68.9375,544.6875 69.6875,544.1406 C70.2656,543.7344 70.5938,543.2813 70.5938,542.8906 C70.5938,542.4375 70.2031,542.0469 69.7344,542.0469 C69.5156,542.0469 69.3125,542.125 69.125,542.3125 C68.6719,542.7969 68.6719,542.7969 68.4844,542.8906 C68.0625,543.1563 67.375,543.2813 66.6094,543.2813 C64.5625,543.2813 63.2656,542.1875 63.2656,540.4844 L63.2656,539.3906 C63.2656,537.6094 64.5156,536.2969 66.25,536.2969 C66.8281,536.2969 67.4375,536.4531 67.9063,536.7031 C68.3906,536.9844 68.5625,537.2031 68.6563,537.6094 C68.7188,538.0156 68.75,538.1406 68.8906,538.2656 C69.0313,538.4063 69.2656,538.5156 69.4844,538.5156 C69.75,538.5156 70.0156,538.375 70.1875,538.1563 C70.2969,538 70.3281,537.8125 70.3281,537.3906 L70.3281,535.9688 C70.3281,535.5313 70.3125,535.4063 70.2188,535.25 C70.0625,534.9844 69.7813,534.8438 69.4844,534.8438 C69.1875,534.8438 68.9844,534.9375 68.7656,535.25 L68.5938,535.1719 Z " fill="#000000"/><text fill="#000000" font-family="sans-serif" font-size="12" lengthAdjust="spacing" textLength="79" x="86.75" y="543.6543">BerryService</text><line style="stroke:#A80036;stroke-width:1.5;" x1="8" x2="212" y1="555.5" y2="555.5"/><ellipse cx="18" cy="566.5" rx="3" ry="3" style="stroke:#038048;stroke-width:1.0;fill:none;"/><text fill="#000000" font-family="sans-serif" font-size="11" lengthAdjust="spacing" textLength="81" x="27" y="569.7104">baseUrl: string</text><rect fill="none" height="6" style="stroke:#C82930;stroke-width:1.0;" width="6" x="15" y="576.3047"/><text fill="#000000" font-family="sans-serif" font-size="11" lengthAdjust="spacing" textLength="125" x="27" y="582.5151">headers: HttpHeaders</text><rect fill="none" height="6" style="stroke:#C82930;stroke-width:1.0;" width="6" x="15" y="589.1094"/><text fill="#000000" font-family="sans-serif" font-size="11" lengthAdjust="spacing" textLength="85" x="27" y="595.3198">http: HttpClient</text><rect fill="none" height="6" style="stroke:#C82930;stroke-width:1.0;" width="6" x="15" y="601.9141"/><text fill="#000000" font-family="sans-serif" font-size="11" lengthAdjust="spacing" textLength="146" x="27" y="608.1245">authService: AuthService</text><line style="stroke:#A80036;stroke-width:1.5;" x1="8" x2="212" y1="614.7188" y2="614.7188"/><ellipse cx="18" cy="625.7188" fill="#84BE84" rx="3" ry="3" style="stroke:#038048;stroke-width:1.0;"/><text fill="#000000" font-family="sans-serif" font-size="11" lengthAdjust="spacing" textLength="180" x="27" y="628.9292">getBerries(): Observable&lt;any&gt;</text><!--MD5=[3da2594aa562b3733597cb80b8b524b6]
class BerryComponent--><rect codeLine="109" fill="#FEFECE" filter="url(#f105p6cf6ez3pk)" height="112.0234" id="BerryComponent" style="stroke:#A80036;stroke-width:1.5;" width="180" x="3643" y="287.5"/><ellipse cx="3678.7" cy="303.5" fill="#ADD1B2" rx="11" ry="11" style="stroke:#A80036;stroke-width:1.0;"/><path d="M3681.0438,299.1719 C3680.1063,298.7344 3679.5125,298.5938 3678.6375,298.5938 C3676.0125,298.5938 3674.0125,300.6719 3674.0125,303.3906 L3674.0125,304.5156 C3674.0125,307.0938 3676.1219,308.9844 3679.0125,308.9844 C3680.2313,308.9844 3681.3875,308.6875 3682.1375,308.1406 C3682.7156,307.7344 3683.0438,307.2813 3683.0438,306.8906 C3683.0438,306.4375 3682.6531,306.0469 3682.1844,306.0469 C3681.9656,306.0469 3681.7625,306.125 3681.575,306.3125 C3681.1219,306.7969 3681.1219,306.7969 3680.9344,306.8906 C3680.5125,307.1563 3679.825,307.2813 3679.0594,307.2813 C3677.0125,307.2813 3675.7156,306.1875 3675.7156,304.4844 L3675.7156,303.3906 C3675.7156,301.6094 3676.9656,300.2969 3678.7,300.2969 C3679.2781,300.2969 3679.8875,300.4531 3680.3563,300.7031 C3680.8406,300.9844 3681.0125,301.2031 3681.1063,301.6094 C3681.1688,302.0156 3681.2,302.1406 3681.3406,302.2656 C3681.4813,302.4063 3681.7156,302.5156 3681.9344,302.5156 C3682.2,302.5156 3682.4656,302.375 3682.6375,302.1563 C3682.7469,302 3682.7781,301.8125 3682.7781,301.3906 L3682.7781,299.9688 C3682.7781,299.5313 3682.7625,299.4063 3682.6688,299.25 C3682.5125,298.9844 3682.2313,298.8438 3681.9344,298.8438 C3681.6375,298.8438 3681.4344,298.9375 3681.2156,299.25 L3681.0438,299.1719 Z " fill="#000000"/><text fill="#000000" font-family="sans-serif" font-size="12" lengthAdjust="spacing" textLength="102" x="3697.3" y="307.6543">BerryComponent</text><line style="stroke:#A80036;stroke-width:1.5;" x1="3644" x2="3822" y1="319.5" y2="319.5"/><ellipse cx="3654" cy="330.5" rx="3" ry="3" style="stroke:#038048;stroke-width:1.0;fill:none;"/><text fill="#000000" font-family="sans-serif" font-size="11" lengthAdjust="spacing" textLength="53" x="3663" y="333.7104">data: any</text><rect fill="none" height="6" style="stroke:#C82930;stroke-width:1.0;" width="6" x="3651" y="340.3047"/><text fill="#000000" font-family="sans-serif" font-size="11" lengthAdjust="spacing" textLength="154" x="3663" y="346.5151">berryservice: BerryService</text><rect fill="none" height="6" style="stroke:#C82930;stroke-width:1.0;" width="6" x="3651" y="353.1094"/><text fill="#000000" font-family="sans-serif" font-size="11" lengthAdjust="spacing" textLength="78" x="3663" y="359.3198">router: Router</text><line style="stroke:#A80036;stroke-width:1.5;" x1="3644" x2="3822" y1="365.9141" y2="365.9141"/><ellipse cx="3654" cy="376.9141" fill="#84BE84" rx="3" ry="3" style="stroke:#038048;stroke-width:1.0;"/><text fill="#000000" font-family="sans-serif" font-size="11" lengthAdjust="spacing" textLength="86" x="3663" y="380.1245">ngOnInit(): void</text><ellipse cx="3654" cy="389.7188" fill="#84BE84" rx="3" ry="3" style="stroke:#038048;stroke-width:1.0;"/><text fill="#000000" font-family="sans-serif" font-size="11" lengthAdjust="spacing" textLength="99" x="3663" y="392.9292">getBerries(): void</text><!--MD5=[263294ee48e3c821ada5a3c5a07bfbfd]
class Itemid--><rect codeLine="116" fill="#FEFECE" filter="url(#f105p6cf6ez3pk)" height="124.8281" id="Itemid" style="stroke:#A80036;stroke-width:1.5;" width="357" x="248.5" y="517"/><ellipse cx="403.25" cy="533" fill="#B4A7E5" rx="11" ry="11" style="stroke:#A80036;stroke-width:1.0;"/><path d="M404.2031,529.7813 L405.9219,529.7813 C406.3125,529.7813 406.5,529.75 406.625,529.6719 C406.8906,529.5156 407.0313,529.2344 407.0313,528.9375 C407.0313,528.6719 406.9219,528.4063 406.6875,528.2344 C406.5156,528.125 406.375,528.0938 405.9219,528.0938 L400.7813,528.0938 C400.3438,528.0938 400.2188,528.1094 400.0625,528.2031 C399.8125,528.3594 399.6563,528.6563 399.6563,528.9375 C399.6563,529.2188 399.7969,529.4688 400.0156,529.6406 C400.1719,529.75 400.3594,529.7813 400.7813,529.7813 L402.5,529.7813 L402.5,536.2969 L400.7813,536.2969 C400.3438,536.2969 400.2188,536.3125 400.0625,536.4219 C399.8125,536.5781 399.6563,536.8594 399.6563,537.1563 C399.6563,537.4063 399.7969,537.6719 400.0156,537.8281 C400.1719,537.9531 400.375,538 400.7813,538 L405.9219,538 C406.6719,538 407.0313,537.7188 407.0313,537.1563 C407.0313,536.875 406.9219,536.625 406.6875,536.4531 C406.5156,536.3281 406.375,536.2969 405.9219,536.2969 L404.2031,536.2969 L404.2031,529.7813 Z " fill="#000000"/><text fill="#000000" font-family="sans-serif" font-size="12" font-style="italic" lengthAdjust="spacing" textLength="39" x="423.75" y="537.1543">Itemid</text><line style="stroke:#A80036;stroke-width:1.5;" x1="249.5" x2="604.5" y1="549" y2="549"/><ellipse cx="259.5" cy="560" rx="3" ry="3" style="stroke:#038048;stroke-width:1.0;fill:none;"/><text fill="#000000" font-family="sans-serif" font-size="11" lengthAdjust="spacing" textLength="61" x="268.5" y="563.2104">id: number</text><ellipse cx="259.5" cy="572.8047" rx="3" ry="3" style="stroke:#038048;stroke-width:1.0;fill:none;"/><text fill="#000000" font-family="sans-serif" font-size="11" lengthAdjust="spacing" textLength="71" x="268.5" y="576.0151">name: string</text><ellipse cx="259.5" cy="585.6094" rx="3" ry="3" style="stroke:#038048;stroke-width:1.0;fill:none;"/><text fill="#000000" font-family="sans-serif" font-size="11" lengthAdjust="spacing" textLength="331" x="268.5" y="588.8198">names: { language: {    "name": string;}; name: string; }[]</text><ellipse cx="259.5" cy="598.4141" rx="3" ry="3" style="stroke:#038048;stroke-width:1.0;fill:none;"/><text fill="#000000" font-family="sans-serif" font-size="11" lengthAdjust="spacing" textLength="74" x="268.5" y="601.6245">cost: number</text><ellipse cx="259.5" cy="611.2188" rx="3" ry="3" style="stroke:#038048;stroke-width:1.0;fill:none;"/><text fill="#000000" font-family="sans-serif" font-size="11" lengthAdjust="spacing" textLength="148" x="268.5" y="614.4292">sprites: { default: string; }</text><ellipse cx="259.5" cy="624.0234" rx="3" ry="3" style="stroke:#038048;stroke-width:1.0;fill:none;"/><text fill="#000000" font-family="sans-serif" font-size="11" lengthAdjust="spacing" textLength="192" x="268.5" y="627.2339">effect_entries: { effect: string; }[]</text><line style="stroke:#A80036;stroke-width:1.5;" x1="249.5" x2="604.5" y1="633.8281" y2="633.8281"/><!--MD5=[5ee510b617988fb328de72a9e1ecfcf9]
class ItemService--><rect codeLine="124" fill="#FEFECE" filter="url(#f105p6cf6ez3pk)" height="99.2188" id="ItemService" style="stroke:#A80036;stroke-width:1.5;" width="295" x="640.5" y="530"/><ellipse cx="747.75" cy="546" fill="#ADD1B2" rx="11" ry="11" style="stroke:#A80036;stroke-width:1.0;"/><path d="M750.0938,541.6719 C749.1563,541.2344 748.5625,541.0938 747.6875,541.0938 C745.0625,541.0938 743.0625,543.1719 743.0625,545.8906 L743.0625,547.0156 C743.0625,549.5938 745.1719,551.4844 748.0625,551.4844 C749.2813,551.4844 750.4375,551.1875 751.1875,550.6406 C751.7656,550.2344 752.0938,549.7813 752.0938,549.3906 C752.0938,548.9375 751.7031,548.5469 751.2344,548.5469 C751.0156,548.5469 750.8125,548.625 750.625,548.8125 C750.1719,549.2969 750.1719,549.2969 749.9844,549.3906 C749.5625,549.6563 748.875,549.7813 748.1094,549.7813 C746.0625,549.7813 744.7656,548.6875 744.7656,546.9844 L744.7656,545.8906 C744.7656,544.1094 746.0156,542.7969 747.75,542.7969 C748.3281,542.7969 748.9375,542.9531 749.4063,543.2031 C749.8906,543.4844 750.0625,543.7031 750.1563,544.1094 C750.2188,544.5156 750.25,544.6406 750.3906,544.7656 C750.5313,544.9063 750.7656,545.0156 750.9844,545.0156 C751.25,545.0156 751.5156,544.875 751.6875,544.6563 C751.7969,544.5 751.8281,544.3125 751.8281,543.8906 L751.8281,542.4688 C751.8281,542.0313 751.8125,541.9063 751.7188,541.75 C751.5625,541.4844 751.2813,541.3438 750.9844,541.3438 C750.6875,541.3438 750.4844,541.4375 750.2656,541.75 L750.0938,541.6719 Z " fill="#000000"/><text fill="#000000" font-family="sans-serif" font-size="12" lengthAdjust="spacing" textLength="72" x="768.25" y="550.1543">ItemService</text><line style="stroke:#A80036;stroke-width:1.5;" x1="641.5" x2="934.5" y1="562" y2="562"/><rect fill="none" height="6" style="stroke:#C82930;stroke-width:1.0;" width="6" x="648.5" y="570"/><text fill="#000000" font-family="sans-serif" font-size="11" lengthAdjust="spacing" textLength="125" x="660.5" y="576.2104">headers: HttpHeaders</text><rect fill="none" height="6" style="stroke:#C82930;stroke-width:1.0;" width="6" x="648.5" y="582.8047"/><text fill="#000000" font-family="sans-serif" font-size="11" lengthAdjust="spacing" textLength="85" x="660.5" y="589.0151">http: HttpClient</text><rect fill="none" height="6" style="stroke:#C82930;stroke-width:1.0;" width="6" x="648.5" y="595.6094"/><text fill="#000000" font-family="sans-serif" font-size="11" lengthAdjust="spacing" textLength="146" x="660.5" y="601.8198">authService: AuthService</text><line style="stroke:#A80036;stroke-width:1.5;" x1="641.5" x2="934.5" y1="608.4141" y2="608.4141"/><ellipse cx="651.5" cy="619.4141" fill="#84BE84" rx="3" ry="3" style="stroke:#038048;stroke-width:1.0;"/><text fill="#000000" font-family="sans-serif" font-size="11" lengthAdjust="spacing" textLength="269" x="660.5" y="622.6245">getItems(index: number): Observable&lt;Itemid&gt;</text><!--MD5=[fdd2b96a26deaacb45eda033117a72d5]
class PokeItemComponent--><rect codeLine="130" fill="#FEFECE" filter="url(#f105p6cf6ez3pk)" height="188.8516" id="PokeItemComponent" style="stroke:#A80036;stroke-width:1.5;" width="271" x="3858.5" y="249"/><ellipse cx="3927.75" cy="265" fill="#ADD1B2" rx="11" ry="11" style="stroke:#A80036;stroke-width:1.0;"/><path d="M3930.0938,260.6719 C3929.1563,260.2344 3928.5625,260.0938 3927.6875,260.0938 C3925.0625,260.0938 3923.0625,262.1719 3923.0625,264.8906 L3923.0625,266.0156 C3923.0625,268.5938 3925.1719,270.4844 3928.0625,270.4844 C3929.2813,270.4844 3930.4375,270.1875 3931.1875,269.6406 C3931.7656,269.2344 3932.0938,268.7813 3932.0938,268.3906 C3932.0938,267.9375 3931.7031,267.5469 3931.2344,267.5469 C3931.0156,267.5469 3930.8125,267.625 3930.625,267.8125 C3930.1719,268.2969 3930.1719,268.2969 3929.9844,268.3906 C3929.5625,268.6563 3928.875,268.7813 3928.1094,268.7813 C3926.0625,268.7813 3924.7656,267.6875 3924.7656,265.9844 L3924.7656,264.8906 C3924.7656,263.1094 3926.0156,261.7969 3927.75,261.7969 C3928.3281,261.7969 3928.9375,261.9531 3929.4063,262.2031 C3929.8906,262.4844 3930.0625,262.7031 3930.1563,263.1094 C3930.2188,263.5156 3930.25,263.6406 3930.3906,263.7656 C3930.5313,263.9063 3930.7656,264.0156 3930.9844,264.0156 C3931.25,264.0156 3931.5156,263.875 3931.6875,263.6563 C3931.7969,263.5 3931.8281,263.3125 3931.8281,262.8906 L3931.8281,261.4688 C3931.8281,261.0313 3931.8125,260.9063 3931.7188,260.75 C3931.5625,260.4844 3931.2813,260.3438 3930.9844,260.3438 C3930.6875,260.3438 3930.4844,260.4375 3930.2656,260.75 L3930.0938,260.6719 Z " fill="#000000"/><text fill="#000000" font-family="sans-serif" font-size="12" lengthAdjust="spacing" textLength="124" x="3948.25" y="269.1543">PokeItemComponent</text><line style="stroke:#A80036;stroke-width:1.5;" x1="3859.5" x2="4128.5" y1="281" y2="281"/><ellipse cx="3869.5" cy="292" rx="3" ry="3" style="stroke:#038048;stroke-width:1.0;fill:none;"/><text fill="#000000" font-family="sans-serif" font-size="11" lengthAdjust="spacing" textLength="150" x="3878.5" y="295.2104">displayedColumns: string[]</text><ellipse cx="3869.5" cy="304.8047" rx="3" ry="3" style="stroke:#038048;stroke-width:1.0;fill:none;"/><text fill="#000000" font-family="sans-serif" font-size="11" lengthAdjust="spacing" textLength="76" x="3878.5" y="308.0151">data: Itemid[]</text><ellipse cx="3869.5" cy="317.6094" rx="3" ry="3" style="stroke:#038048;stroke-width:1.0;fill:none;"/><text fill="#000000" font-family="sans-serif" font-size="11" lengthAdjust="spacing" textLength="245" x="3878.5" y="320.8198">dataSource: MatTableDataSource&lt;Itemid&gt;</text><ellipse cx="3869.5" cy="330.4141" rx="3" ry="3" style="stroke:#038048;stroke-width:1.0;fill:none;"/><text fill="#000000" font-family="sans-serif" font-size="11" lengthAdjust="spacing" textLength="132" x="3878.5" y="333.6245">paginator: MatPaginator</text><ellipse cx="3869.5" cy="343.2188" rx="3" ry="3" style="stroke:#038048;stroke-width:1.0;fill:none;"/><text fill="#000000" font-family="sans-serif" font-size="11" lengthAdjust="spacing" textLength="72" x="3878.5" y="346.4292">table: Itemid</text><rect fill="none" height="6" style="stroke:#C82930;stroke-width:1.0;" width="6" x="3866.5" y="353.0234"/><text fill="#000000" font-family="sans-serif" font-size="11" lengthAdjust="spacing" textLength="147" x="3878.5" y="359.2339">itemService: ItemService</text><rect fill="none" height="6" style="stroke:#C82930;stroke-width:1.0;" width="6" x="3866.5" y="365.8281"/><text fill="#000000" font-family="sans-serif" font-size="11" lengthAdjust="spacing" textLength="78" x="3878.5" y="372.0386">router: Router</text><line style="stroke:#A80036;stroke-width:1.5;" x1="3859.5" x2="4128.5" y1="378.6328" y2="378.6328"/><ellipse cx="3869.5" cy="389.6328" fill="#84BE84" rx="3" ry="3" style="stroke:#038048;stroke-width:1.0;"/><text fill="#000000" font-family="sans-serif" font-size="11" lengthAdjust="spacing" textLength="86" x="3878.5" y="392.8433">ngOnInit(): void</text><ellipse cx="3869.5" cy="402.4375" fill="#84BE84" rx="3" ry="3" style="stroke:#038048;stroke-width:1.0;"/><text fill="#000000" font-family="sans-serif" font-size="11" lengthAdjust="spacing" textLength="113" x="3878.5" y="405.6479">listItems: () =&gt; void</text><ellipse cx="3869.5" cy="415.2422" fill="#84BE84" rx="3" ry="3" style="stroke:#038048;stroke-width:1.0;"/><text fill="#000000" font-family="sans-serif" font-size="11" lengthAdjust="spacing" textLength="206" x="3878.5" y="418.4526">filterResults: (event: Event) =&gt; void</text><ellipse cx="3869.5" cy="428.0469" fill="#84BE84" rx="3" ry="3" style="stroke:#038048;stroke-width:1.0;"/><text fill="#000000" font-family="sans-serif" font-size="11" lengthAdjust="spacing" textLength="169" x="3878.5" y="431.2573">seeItemDetail(row: any): void</text><!--MD5=[a2d08a8037519bbcc414abaf25041408]
class LogInComponent--><rect codeLine="143" fill="#FEFECE" filter="url(#f105p6cf6ez3pk)" height="124.8281" id="LogInComponent" style="stroke:#A80036;stroke-width:1.5;" width="172" x="4165" y="281"/><ellipse cx="4197.55" cy="297" fill="#ADD1B2" rx="11" ry="11" style="stroke:#A80036;stroke-width:1.0;"/><path d="M4199.8938,292.6719 C4198.9563,292.2344 4198.3625,292.0938 4197.4875,292.0938 C4194.8625,292.0938 4192.8625,294.1719 4192.8625,296.8906 L4192.8625,298.0156 C4192.8625,300.5938 4194.9719,302.4844 4197.8625,302.4844 C4199.0813,302.4844 4200.2375,302.1875 4200.9875,301.6406 C4201.5656,301.2344 4201.8938,300.7813 4201.8938,300.3906 C4201.8938,299.9375 4201.5031,299.5469 4201.0344,299.5469 C4200.8156,299.5469 4200.6125,299.625 4200.425,299.8125 C4199.9719,300.2969 4199.9719,300.2969 4199.7844,300.3906 C4199.3625,300.6563 4198.675,300.7813 4197.9094,300.7813 C4195.8625,300.7813 4194.5656,299.6875 4194.5656,297.9844 L4194.5656,296.8906 C4194.5656,295.1094 4195.8156,293.7969 4197.55,293.7969 C4198.1281,293.7969 4198.7375,293.9531 4199.2063,294.2031 C4199.6906,294.4844 4199.8625,294.7031 4199.9563,295.1094 C4200.0188,295.5156 4200.05,295.6406 4200.1906,295.7656 C4200.3313,295.9063 4200.5656,296.0156 4200.7844,296.0156 C4201.05,296.0156 4201.3156,295.875 4201.4875,295.6563 C4201.5969,295.5 4201.6281,295.3125 4201.6281,294.8906 L4201.6281,293.4688 C4201.6281,293.0313 4201.6125,292.9063 4201.5188,292.75 C4201.3625,292.4844 4201.0813,292.3438 4200.7844,292.3438 C4200.4875,292.3438 4200.2844,292.4375 4200.0656,292.75 L4199.8938,292.6719 Z " fill="#000000"/><text fill="#000000" font-family="sans-serif" font-size="12" lengthAdjust="spacing" textLength="101" x="4215.45" y="301.1543">LogInComponent</text><line style="stroke:#A80036;stroke-width:1.5;" x1="4166" x2="4336" y1="313" y2="313"/><ellipse cx="4176" cy="324" rx="3" ry="3" style="stroke:#038048;stroke-width:1.0;fill:none;"/><text fill="#000000" font-family="sans-serif" font-size="11" lengthAdjust="spacing" textLength="124" x="4185" y="327.2104">logInForm: FormGroup</text><rect fill="none" height="6" style="stroke:#C82930;stroke-width:1.0;" width="6" x="4173" y="333.8047"/><text fill="#000000" font-family="sans-serif" font-size="11" lengthAdjust="spacing" textLength="109" x="4185" y="340.0151">formB: FormBuilder</text><rect fill="none" height="6" style="stroke:#C82930;stroke-width:1.0;" width="6" x="4173" y="346.6094"/><text fill="#000000" font-family="sans-serif" font-size="11" lengthAdjust="spacing" textLength="146" x="4185" y="352.8198">authService: AuthService</text><rect fill="none" height="6" style="stroke:#C82930;stroke-width:1.0;" width="6" x="4173" y="359.4141"/><text fill="#000000" font-family="sans-serif" font-size="11" lengthAdjust="spacing" textLength="78" x="4185" y="365.6245">router: Router</text><line style="stroke:#A80036;stroke-width:1.5;" x1="4166" x2="4336" y1="372.2188" y2="372.2188"/><ellipse cx="4176" cy="383.2188" fill="#84BE84" rx="3" ry="3" style="stroke:#038048;stroke-width:1.0;"/><text fill="#000000" font-family="sans-serif" font-size="11" lengthAdjust="spacing" textLength="86" x="4185" y="386.4292">ngOnInit(): void</text><ellipse cx="4176" cy="396.0234" fill="#84BE84" rx="3" ry="3" style="stroke:#038048;stroke-width:1.0;"/><text fill="#000000" font-family="sans-serif" font-size="11" lengthAdjust="spacing" textLength="66" x="4185" y="399.2339">login(): void</text><!--MD5=[0d9da816d5bf66856502f874bdbb27f7]
class NotfoundComponent--><rect codeLine="151" fill="#FEFECE" filter="url(#f105p6cf6ez3pk)" height="60.8047" id="NotfoundComponent" style="stroke:#A80036;stroke-width:1.5;" width="155" x="4372.5" y="313"/><ellipse cx="4387.5" cy="329" fill="#ADD1B2" rx="11" ry="11" style="stroke:#A80036;stroke-width:1.0;"/><path d="M4389.8438,324.6719 C4388.9063,324.2344 4388.3125,324.0938 4387.4375,324.0938 C4384.8125,324.0938 4382.8125,326.1719 4382.8125,328.8906 L4382.8125,330.0156 C4382.8125,332.5938 4384.9219,334.4844 4387.8125,334.4844 C4389.0313,334.4844 4390.1875,334.1875 4390.9375,333.6406 C4391.5156,333.2344 4391.8438,332.7813 4391.8438,332.3906 C4391.8438,331.9375 4391.4531,331.5469 4390.9844,331.5469 C4390.7656,331.5469 4390.5625,331.625 4390.375,331.8125 C4389.9219,332.2969 4389.9219,332.2969 4389.7344,332.3906 C4389.3125,332.6563 4388.625,332.7813 4387.8594,332.7813 C4385.8125,332.7813 4384.5156,331.6875 4384.5156,329.9844 L4384.5156,328.8906 C4384.5156,327.1094 4385.7656,325.7969 4387.5,325.7969 C4388.0781,325.7969 4388.6875,325.9531 4389.1563,326.2031 C4389.6406,326.4844 4389.8125,326.7031 4389.9063,327.1094 C4389.9688,327.5156 4390,327.6406 4390.1406,327.7656 C4390.2813,327.9063 4390.5156,328.0156 4390.7344,328.0156 C4391,328.0156 4391.2656,327.875 4391.4375,327.6563 C4391.5469,327.5 4391.5781,327.3125 4391.5781,326.8906 L4391.5781,325.4688 C4391.5781,325.0313 4391.5625,324.9063 4391.4688,324.75 C4391.3125,324.4844 4391.0313,324.3438 4390.7344,324.3438 C4390.4375,324.3438 4390.2344,324.4375 4390.0156,324.75 L4389.8438,324.6719 Z " fill="#000000"/><text fill="#000000" font-family="sans-serif" font-size="12" lengthAdjust="spacing" textLength="123" x="4401.5" y="333.1543">NotfoundComponent</text><line style="stroke:#A80036;stroke-width:1.5;" x1="4373.5" x2="4526.5" y1="345" y2="345"/><line style="stroke:#A80036;stroke-width:1.5;" x1="4373.5" x2="4526.5" y1="353" y2="353"/><ellipse cx="4383.5" cy="364" fill="#84BE84" rx="3" ry="3" style="stroke:#038048;stroke-width:1.0;"/><text fill="#000000" font-family="sans-serif" font-size="11" lengthAdjust="spacing" textLength="86" x="4392.5" y="367.2104">ngOnInit(): void</text><!--MD5=[99e76fb7bfd62d99386e63ad655a1ce7]
class ValidateTokenGuard--><rect codeLine="154" fill="#FEFECE" filter="url(#f105p6cf6ez3pk)" height="99.2188" id="ValidateTokenGuard" style="stroke:#A80036;stroke-width:1.5;" width="172" x="4770" y="294"/><ellipse cx="4793.55" cy="310" fill="#ADD1B2" rx="11" ry="11" style="stroke:#A80036;stroke-width:1.0;"/><path d="M4795.8938,305.6719 C4794.9563,305.2344 4794.3625,305.0938 4793.4875,305.0938 C4790.8625,305.0938 4788.8625,307.1719 4788.8625,309.8906 L4788.8625,311.0156 C4788.8625,313.5938 4790.9719,315.4844 4793.8625,315.4844 C4795.0813,315.4844 4796.2375,315.1875 4796.9875,314.6406 C4797.5656,314.2344 4797.8938,313.7813 4797.8938,313.3906 C4797.8938,312.9375 4797.5031,312.5469 4797.0344,312.5469 C4796.8156,312.5469 4796.6125,312.625 4796.425,312.8125 C4795.9719,313.2969 4795.9719,313.2969 4795.7844,313.3906 C4795.3625,313.6563 4794.675,313.7813 4793.9094,313.7813 C4791.8625,313.7813 4790.5656,312.6875 4790.5656,310.9844 L4790.5656,309.8906 C4790.5656,308.1094 4791.8156,306.7969 4793.55,306.7969 C4794.1281,306.7969 4794.7375,306.9531 4795.2063,307.2031 C4795.6906,307.4844 4795.8625,307.7031 4795.9563,308.1094 C4796.0188,308.5156 4796.05,308.6406 4796.1906,308.7656 C4796.3313,308.9063 4796.5656,309.0156 4796.7844,309.0156 C4797.05,309.0156 4797.3156,308.875 4797.4875,308.6563 C4797.5969,308.5 4797.6281,308.3125 4797.6281,307.8906 L4797.6281,306.4688 C4797.6281,306.0313 4797.6125,305.9063 4797.5188,305.75 C4797.3625,305.4844 4797.0813,305.3438 4796.7844,305.3438 C4796.4875,305.3438 4796.2844,305.4375 4796.0656,305.75 L4795.8938,305.6719 Z " fill="#000000"/><text fill="#000000" font-family="sans-serif" font-size="12" lengthAdjust="spacing" textLength="121" x="4809.45" y="314.1543">ValidateTokenGuard</text><line style="stroke:#A80036;stroke-width:1.5;" x1="4771" x2="4941" y1="326" y2="326"/><rect fill="none" height="6" style="stroke:#C82930;stroke-width:1.0;" width="6" x="4778" y="334"/><text fill="#000000" font-family="sans-serif" font-size="11" lengthAdjust="spacing" textLength="146" x="4790" y="340.2104">authService: AuthService</text><rect fill="none" height="6" style="stroke:#C82930;stroke-width:1.0;" width="6" x="4778" y="346.8047"/><text fill="#000000" font-family="sans-serif" font-size="11" lengthAdjust="spacing" textLength="78" x="4790" y="353.0151">router: Router</text><line style="stroke:#A80036;stroke-width:1.5;" x1="4771" x2="4941" y1="359.6094" y2="359.6094"/><ellipse cx="4781" cy="370.6094" fill="#84BE84" rx="3" ry="3" style="stroke:#038048;stroke-width:1.0;"/><text fill="#000000" font-family="sans-serif" font-size="11" lengthAdjust="spacing" textLength="128" x="4790" y="373.8198">canActivate(): boolean</text><ellipse cx="4781" cy="383.4141" fill="#84BE84" rx="3" ry="3" style="stroke:#038048;stroke-width:1.0;"/><text fill="#000000" font-family="sans-serif" font-size="11" lengthAdjust="spacing" textLength="108" x="4790" y="386.6245">canLoad(): boolean</text><!--MD5=[36615843579d932fff2101fcf8e96ac3]
class CanActivate--><rect fill="#FEFECE" filter="url(#f105p6cf6ez3pk)" height="48" id="CanActivate" style="stroke:#A80036;stroke-width:1.5;" width="104" x="4739" y="64.5"/><ellipse cx="4754" cy="80.5" fill="#B4A7E5" rx="11" ry="11" style="stroke:#A80036;stroke-width:1.0;"/><path d="M4754.9531,77.2813 L4756.6719,77.2813 C4757.0625,77.2813 4757.25,77.25 4757.375,77.1719 C4757.6406,77.0156 4757.7813,76.7344 4757.7813,76.4375 C4757.7813,76.1719 4757.6719,75.9063 4757.4375,75.7344 C4757.2656,75.625 4757.125,75.5938 4756.6719,75.5938 L4751.5313,75.5938 C4751.0938,75.5938 4750.9688,75.6094 4750.8125,75.7031 C4750.5625,75.8594 4750.4063,76.1563 4750.4063,76.4375 C4750.4063,76.7188 4750.5469,76.9688 4750.7656,77.1406 C4750.9219,77.25 4751.1094,77.2813 4751.5313,77.2813 L4753.25,77.2813 L4753.25,83.7969 L4751.5313,83.7969 C4751.0938,83.7969 4750.9688,83.8125 4750.8125,83.9219 C4750.5625,84.0781 4750.4063,84.3594 4750.4063,84.6563 C4750.4063,84.9063 4750.5469,85.1719 4750.7656,85.3281 C4750.9219,85.4531 4751.125,85.5 4751.5313,85.5 L4756.6719,85.5 C4757.4219,85.5 4757.7813,85.2188 4757.7813,84.6563 C4757.7813,84.375 4757.6719,84.125 4757.4375,83.9531 C4757.2656,83.8281 4757.125,83.7969 4756.6719,83.7969 L4754.9531,83.7969 L4754.9531,77.2813 Z " fill="#000000"/><text fill="#000000" font-family="sans-serif" font-size="12" font-style="italic" lengthAdjust="spacing" textLength="72" x="4768" y="84.6543">CanActivate</text><line style="stroke:#A80036;stroke-width:1.5;" x1="4740" x2="4842" y1="96.5" y2="96.5"/><line style="stroke:#A80036;stroke-width:1.5;" x1="4740" x2="4842" y1="104.5" y2="104.5"/><!--MD5=[a17640f46d62ef26c81fcd09267a7b0f]
class CanLoad--><rect fill="#FEFECE" filter="url(#f105p6cf6ez3pk)" height="48" id="CanLoad" style="stroke:#A80036;stroke-width:1.5;" width="84" x="4878" y="64.5"/><ellipse cx="4893" cy="80.5" fill="#B4A7E5" rx="11" ry="11" style="stroke:#A80036;stroke-width:1.0;"/><path d="M4893.9531,77.2813 L4895.6719,77.2813 C4896.0625,77.2813 4896.25,77.25 4896.375,77.1719 C4896.6406,77.0156 4896.7813,76.7344 4896.7813,76.4375 C4896.7813,76.1719 4896.6719,75.9063 4896.4375,75.7344 C4896.2656,75.625 4896.125,75.5938 4895.6719,75.5938 L4890.5313,75.5938 C4890.0938,75.5938 4889.9688,75.6094 4889.8125,75.7031 C4889.5625,75.8594 4889.4063,76.1563 4889.4063,76.4375 C4889.4063,76.7188 4889.5469,76.9688 4889.7656,77.1406 C4889.9219,77.25 4890.1094,77.2813 4890.5313,77.2813 L4892.25,77.2813 L4892.25,83.7969 L4890.5313,83.7969 C4890.0938,83.7969 4889.9688,83.8125 4889.8125,83.9219 C4889.5625,84.0781 4889.4063,84.3594 4889.4063,84.6563 C4889.4063,84.9063 4889.5469,85.1719 4889.7656,85.3281 C4889.9219,85.4531 4890.125,85.5 4890.5313,85.5 L4895.6719,85.5 C4896.4219,85.5 4896.7813,85.2188 4896.7813,84.6563 C4896.7813,84.375 4896.6719,84.125 4896.4375,83.9531 C4896.2656,83.8281 4896.125,83.7969 4895.6719,83.7969 L4893.9531,83.7969 L4893.9531,77.2813 Z " fill="#000000"/><text fill="#000000" font-family="sans-serif" font-size="12" font-style="italic" lengthAdjust="spacing" textLength="52" x="4907" y="84.6543">CanLoad</text><line style="stroke:#A80036;stroke-width:1.5;" x1="4879" x2="4961" y1="96.5" y2="96.5"/><line style="stroke:#A80036;stroke-width:1.5;" x1="4879" x2="4961" y1="104.5" y2="104.5"/><!--MD5=[aac6b132d14d1cacd31e46ffab5b991f]
class AppRoutingModule--><rect codeLine="160" fill="#FEFECE" filter="url(#f105p6cf6ez3pk)" height="48" id="AppRoutingModule" style="stroke:#A80036;stroke-width:1.5;" width="144" x="971" y="555.5"/><ellipse cx="986" cy="571.5" fill="#ADD1B2" rx="11" ry="11" style="stroke:#A80036;stroke-width:1.0;"/><path d="M988.3438,567.1719 C987.4063,566.7344 986.8125,566.5938 985.9375,566.5938 C983.3125,566.5938 981.3125,568.6719 981.3125,571.3906 L981.3125,572.5156 C981.3125,575.0938 983.4219,576.9844 986.3125,576.9844 C987.5313,576.9844 988.6875,576.6875 989.4375,576.1406 C990.0156,575.7344 990.3438,575.2813 990.3438,574.8906 C990.3438,574.4375 989.9531,574.0469 989.4844,574.0469 C989.2656,574.0469 989.0625,574.125 988.875,574.3125 C988.4219,574.7969 988.4219,574.7969 988.2344,574.8906 C987.8125,575.1563 987.125,575.2813 986.3594,575.2813 C984.3125,575.2813 983.0156,574.1875 983.0156,572.4844 L983.0156,571.3906 C983.0156,569.6094 984.2656,568.2969 986,568.2969 C986.5781,568.2969 987.1875,568.4531 987.6563,568.7031 C988.1406,568.9844 988.3125,569.2031 988.4063,569.6094 C988.4688,570.0156 988.5,570.1406 988.6406,570.2656 C988.7813,570.4063 989.0156,570.5156 989.2344,570.5156 C989.5,570.5156 989.7656,570.375 989.9375,570.1563 C990.0469,570 990.0781,569.8125 990.0781,569.3906 L990.0781,567.9688 C990.0781,567.5313 990.0625,567.4063 989.9688,567.25 C989.8125,566.9844 989.5313,566.8438 989.2344,566.8438 C988.9375,566.8438 988.7344,566.9375 988.5156,567.25 L988.3438,567.1719 Z " fill="#000000"/><text fill="#000000" font-family="sans-serif" font-size="12" lengthAdjust="spacing" textLength="112" x="1000" y="575.6543">AppRoutingModule</text><line style="stroke:#A80036;stroke-width:1.5;" x1="972" x2="1114" y1="587.5" y2="587.5"/><line style="stroke:#A80036;stroke-width:1.5;" x1="972" x2="1114" y1="595.5" y2="595.5"/><!--MD5=[ddea70da627106f10bdcaaa15f7d8af7]
class AppComponent--><rect codeLine="161" fill="#FEFECE" filter="url(#f105p6cf6ez3pk)" height="86.4141" id="AppComponent" style="stroke:#A80036;stroke-width:1.5;" width="152" x="34" y="702"/><ellipse cx="61.15" cy="718" fill="#ADD1B2" rx="11" ry="11" style="stroke:#A80036;stroke-width:1.0;"/><path d="M63.4938,713.6719 C62.5563,713.2344 61.9625,713.0938 61.0875,713.0938 C58.4625,713.0938 56.4625,715.1719 56.4625,717.8906 L56.4625,719.0156 C56.4625,721.5938 58.5719,723.4844 61.4625,723.4844 C62.6813,723.4844 63.8375,723.1875 64.5875,722.6406 C65.1656,722.2344 65.4938,721.7813 65.4938,721.3906 C65.4938,720.9375 65.1031,720.5469 64.6344,720.5469 C64.4156,720.5469 64.2125,720.625 64.025,720.8125 C63.5719,721.2969 63.5719,721.2969 63.3844,721.3906 C62.9625,721.6563 62.275,721.7813 61.5094,721.7813 C59.4625,721.7813 58.1656,720.6875 58.1656,718.9844 L58.1656,717.8906 C58.1656,716.1094 59.4156,714.7969 61.15,714.7969 C61.7281,714.7969 62.3375,714.9531 62.8063,715.2031 C63.2906,715.4844 63.4625,715.7031 63.5563,716.1094 C63.6188,716.5156 63.65,716.6406 63.7906,716.7656 C63.9313,716.9063 64.1656,717.0156 64.3844,717.0156 C64.65,717.0156 64.9156,716.875 65.0875,716.6563 C65.1969,716.5 65.2281,716.3125 65.2281,715.8906 L65.2281,714.4688 C65.2281,714.0313 65.2125,713.9063 65.1188,713.75 C64.9625,713.4844 64.6813,713.3438 64.3844,713.3438 C64.0875,713.3438 63.8844,713.4375 63.6656,713.75 L63.4938,713.6719 Z " fill="#000000"/><text fill="#000000" font-family="sans-serif" font-size="12" lengthAdjust="spacing" textLength="93" x="77.85" y="722.1543">AppComponent</text><line style="stroke:#A80036;stroke-width:1.5;" x1="35" x2="185" y1="734" y2="734"/><ellipse cx="45" cy="745" rx="3" ry="3" style="stroke:#038048;stroke-width:1.0;fill:none;"/><text fill="#000000" font-family="sans-serif" font-size="11" lengthAdjust="spacing" textLength="60" x="54" y="748.2104">title: string</text><ellipse cx="45" cy="757.8047" rx="3" ry="3" style="stroke:#038048;stroke-width:1.0;fill:none;"/><text fill="#000000" font-family="sans-serif" font-size="11" lengthAdjust="spacing" textLength="126" x="54" y="761.0151">mostrarHead: boolean</text><rect fill="none" height="6" style="stroke:#C82930;stroke-width:1.0;" width="6" x="42" y="767.6094"/><text fill="#000000" font-family="sans-serif" font-size="11" lengthAdjust="spacing" textLength="78" x="54" y="773.8198">router: Router</text><line style="stroke:#A80036;stroke-width:1.5;" x1="35" x2="185" y1="780.4141" y2="780.4141"/><!--MD5=[c4ea0f4eecc4929494117084b380aefd]
class HeaderComponent--><rect codeLine="166" fill="#FEFECE" filter="url(#f105p6cf6ez3pk)" height="112.0234" id="HeaderComponent" style="stroke:#A80036;stroke-width:1.5;" width="172" x="4563" y="287.5"/><ellipse cx="4589.7" cy="303.5" fill="#ADD1B2" rx="11" ry="11" style="stroke:#A80036;stroke-width:1.0;"/><path d="M4592.0438,299.1719 C4591.1063,298.7344 4590.5125,298.5938 4589.6375,298.5938 C4587.0125,298.5938 4585.0125,300.6719 4585.0125,303.3906 L4585.0125,304.5156 C4585.0125,307.0938 4587.1219,308.9844 4590.0125,308.9844 C4591.2313,308.9844 4592.3875,308.6875 4593.1375,308.1406 C4593.7156,307.7344 4594.0438,307.2813 4594.0438,306.8906 C4594.0438,306.4375 4593.6531,306.0469 4593.1844,306.0469 C4592.9656,306.0469 4592.7625,306.125 4592.575,306.3125 C4592.1219,306.7969 4592.1219,306.7969 4591.9344,306.8906 C4591.5125,307.1563 4590.825,307.2813 4590.0594,307.2813 C4588.0125,307.2813 4586.7156,306.1875 4586.7156,304.4844 L4586.7156,303.3906 C4586.7156,301.6094 4587.9656,300.2969 4589.7,300.2969 C4590.2781,300.2969 4590.8875,300.4531 4591.3563,300.7031 C4591.8406,300.9844 4592.0125,301.2031 4592.1063,301.6094 C4592.1688,302.0156 4592.2,302.1406 4592.3406,302.2656 C4592.4813,302.4063 4592.7156,302.5156 4592.9344,302.5156 C4593.2,302.5156 4593.4656,302.375 4593.6375,302.1563 C4593.7469,302 4593.7781,301.8125 4593.7781,301.3906 L4593.7781,299.9688 C4593.7781,299.5313 4593.7625,299.4063 4593.6688,299.25 C4593.5125,298.9844 4593.2313,298.8438 4592.9344,298.8438 C4592.6375,298.8438 4592.4344,298.9375 4592.2156,299.25 L4592.0438,299.1719 Z " fill="#000000"/><text fill="#000000" font-family="sans-serif" font-size="12" lengthAdjust="spacing" textLength="114" x="4606.3" y="307.6543">HeaderComponent</text><line style="stroke:#A80036;stroke-width:1.5;" x1="4564" x2="4734" y1="319.5" y2="319.5"/><rect fill="none" height="6" style="stroke:#C82930;stroke-width:1.0;" width="6" x="4571" y="327.5"/><text fill="#000000" font-family="sans-serif" font-size="11" lengthAdjust="spacing" textLength="78" x="4583" y="333.7104">router: Router</text><rect fill="none" height="6" style="stroke:#C82930;stroke-width:1.0;" width="6" x="4571" y="340.3047"/><text fill="#000000" font-family="sans-serif" font-size="11" lengthAdjust="spacing" textLength="146" x="4583" y="346.5151">authService: AuthService</text><line style="stroke:#A80036;stroke-width:1.5;" x1="4564" x2="4734" y1="353.1094" y2="353.1094"/><ellipse cx="4574" cy="364.1094" fill="#84BE84" rx="3" ry="3" style="stroke:#038048;stroke-width:1.0;"/><text fill="#000000" font-family="sans-serif" font-size="11" lengthAdjust="spacing" textLength="86" x="4583" y="367.3198">ngOnInit(): void</text><ellipse cx="4574" cy="376.9141" fill="#84BE84" rx="3" ry="3" style="stroke:#038048;stroke-width:1.0;"/><text fill="#000000" font-family="sans-serif" font-size="11" lengthAdjust="spacing" textLength="72" x="4583" y="380.1245">home(): void</text><ellipse cx="4574" cy="389.7188" fill="#84BE84" rx="3" ry="3" style="stroke:#038048;stroke-width:1.0;"/><text fill="#000000" font-family="sans-serif" font-size="11" lengthAdjust="spacing" textLength="119" x="4583" y="392.9292">logout(): Subscription</text><!--MD5=[e3332ad428330276abb9d01dd8cbd767]
class MaterialModule--><rect codeLine="173" fill="#FEFECE" filter="url(#f105p6cf6ez3pk)" height="48" id="MaterialModule" style="stroke:#A80036;stroke-width:1.5;" width="123" x="221.5" y="721"/><ellipse cx="236.5" cy="737" fill="#ADD1B2" rx="11" ry="11" style="stroke:#A80036;stroke-width:1.0;"/><path d="M238.8438,732.6719 C237.9063,732.2344 237.3125,732.0938 236.4375,732.0938 C233.8125,732.0938 231.8125,734.1719 231.8125,736.8906 L231.8125,738.0156 C231.8125,740.5938 233.9219,742.4844 236.8125,742.4844 C238.0313,742.4844 239.1875,742.1875 239.9375,741.6406 C240.5156,741.2344 240.8438,740.7813 240.8438,740.3906 C240.8438,739.9375 240.4531,739.5469 239.9844,739.5469 C239.7656,739.5469 239.5625,739.625 239.375,739.8125 C238.9219,740.2969 238.9219,740.2969 238.7344,740.3906 C238.3125,740.6563 237.625,740.7813 236.8594,740.7813 C234.8125,740.7813 233.5156,739.6875 233.5156,737.9844 L233.5156,736.8906 C233.5156,735.1094 234.7656,733.7969 236.5,733.7969 C237.0781,733.7969 237.6875,733.9531 238.1563,734.2031 C238.6406,734.4844 238.8125,734.7031 238.9063,735.1094 C238.9688,735.5156 239,735.6406 239.1406,735.7656 C239.2813,735.9063 239.5156,736.0156 239.7344,736.0156 C240,736.0156 240.2656,735.875 240.4375,735.6563 C240.5469,735.5 240.5781,735.3125 240.5781,734.8906 L240.5781,733.4688 C240.5781,733.0313 240.5625,732.9063 240.4688,732.75 C240.3125,732.4844 240.0313,732.3438 239.7344,732.3438 C239.4375,732.3438 239.2344,732.4375 239.0156,732.75 L238.8438,732.6719 Z " fill="#000000"/><text fill="#000000" font-family="sans-serif" font-size="12" lengthAdjust="spacing" textLength="91" x="250.5" y="741.1543">MaterialModule</text><line style="stroke:#A80036;stroke-width:1.5;" x1="222.5" x2="343.5" y1="753" y2="753"/><line style="stroke:#A80036;stroke-width:1.5;" x1="222.5" x2="343.5" y1="761" y2="761"/><!--MD5=[58cce8e5c3db329f74602bb34e949653]
class AppModule--><rect codeLine="174" fill="#FEFECE" filter="url(#f105p6cf6ez3pk)" height="48" id="AppModule" style="stroke:#A80036;stroke-width:1.5;" width="100" x="380" y="721"/><ellipse cx="395" cy="737" fill="#ADD1B2" rx="11" ry="11" style="stroke:#A80036;stroke-width:1.0;"/><path d="M397.3438,732.6719 C396.4063,732.2344 395.8125,732.0938 394.9375,732.0938 C392.3125,732.0938 390.3125,734.1719 390.3125,736.8906 L390.3125,738.0156 C390.3125,740.5938 392.4219,742.4844 395.3125,742.4844 C396.5313,742.4844 397.6875,742.1875 398.4375,741.6406 C399.0156,741.2344 399.3438,740.7813 399.3438,740.3906 C399.3438,739.9375 398.9531,739.5469 398.4844,739.5469 C398.2656,739.5469 398.0625,739.625 397.875,739.8125 C397.4219,740.2969 397.4219,740.2969 397.2344,740.3906 C396.8125,740.6563 396.125,740.7813 395.3594,740.7813 C393.3125,740.7813 392.0156,739.6875 392.0156,737.9844 L392.0156,736.8906 C392.0156,735.1094 393.2656,733.7969 395,733.7969 C395.5781,733.7969 396.1875,733.9531 396.6563,734.2031 C397.1406,734.4844 397.3125,734.7031 397.4063,735.1094 C397.4688,735.5156 397.5,735.6406 397.6406,735.7656 C397.7813,735.9063 398.0156,736.0156 398.2344,736.0156 C398.5,736.0156 398.7656,735.875 398.9375,735.6563 C399.0469,735.5 399.0781,735.3125 399.0781,734.8906 L399.0781,733.4688 C399.0781,733.0313 399.0625,732.9063 398.9688,732.75 C398.8125,732.4844 398.5313,732.3438 398.2344,732.3438 C397.9375,732.3438 397.7344,732.4375 397.5156,732.75 L397.3438,732.6719 Z " fill="#000000"/><text fill="#000000" font-family="sans-serif" font-size="12" lengthAdjust="spacing" textLength="68" x="409" y="741.1543">AppModule</text><line style="stroke:#A80036;stroke-width:1.5;" x1="381" x2="479" y1="753" y2="753"/><line style="stroke:#A80036;stroke-width:1.5;" x1="381" x2="479" y1="761" y2="761"/><!--MD5=[b82f23a9d0b20e6532c666a12a4e3f80]
reverse link OnInit to RegionComponent--><path d="M3563.03,91.69 C3362.3,100.383 2670.4,136.63 2473,230 C2447.67,241.982 2424.28,261.521 2405.13,280.98 " fill="none" id="OnInit-backto-RegionComponent" style="stroke:#A80036;stroke-width:1.0;stroke-dasharray:7.0,7.0;"/><polygon fill="none" points="3562.94,84.688,3583.22,90.838,3563.54,98.675,3562.94,84.688" style="stroke:#A80036;stroke-width:1.0;"/><!--MD5=[da1afc4973bed269c9dacaa94df28d9b]
reverse link OnInit to PokeDetailComponent--><path d="M3563.25,94.278 C3394.5,109.616 2884.69,160.679 2735,230 C2708.34,242.345 2682.9,261.725 2661.64,280.945 " fill="none" id="OnInit-backto-PokeDetailComponent" style="stroke:#A80036;stroke-width:1.0;stroke-dasharray:7.0,7.0;"/><polygon fill="none" points="3562.65,87.304,3583.2,92.488,3563.91,101.248,3562.65,87.304" style="stroke:#A80036;stroke-width:1.0;"/><!--MD5=[e808dfcba352754ab3eecfeafc4b7f3e]
reverse link OnInit to MyTeamComponent--><path d="M3563.4,98.294 C3465.35,115.316 3254.25,157.609 3089,230 C3057.65,243.734 3025.46,262.55 2997.27,280.864 " fill="none" id="OnInit-backto-MyTeamComponent" style="stroke:#A80036;stroke-width:1.0;stroke-dasharray:7.0,7.0;"/><polygon fill="none" points="3562.48,91.35,3583.37,94.908,3564.82,105.153,3562.48,91.35" style="stroke:#A80036;stroke-width:1.0;"/><!--MD5=[5c276924ff0c6c4ff9b9cae365dc5b36]
reverse link OnInit to PokeTableComponent--><path d="M3565.5,117.964 C3516.49,145.129 3441.81,188.024 3380,230 C3374.46,233.759 3368.86,237.658 3363.24,241.65 " fill="none" id="OnInit-backto-PokeTableComponent" style="stroke:#A80036;stroke-width:1.0;stroke-dasharray:7.0,7.0;"/><polygon fill="none" points="3562.37,111.699,3583.27,108.187,3569.12,123.964,3562.37,111.699" style="stroke:#A80036;stroke-width:1.0;"/><!--MD5=[74edd8cc95c0ad9437d0985e76590288]
reverse link OnInit to LocationComponent--><path d="M3599.07,131.147 C3579.68,173.808 3549.43,240.36 3528.06,287.369 " fill="none" id="OnInit-backto-LocationComponent" style="stroke:#A80036;stroke-width:1.0;stroke-dasharray:7.0,7.0;"/><polygon fill="none" points="3592.74,128.159,3607.39,112.848,3605.48,133.952,3592.74,128.159" style="stroke:#A80036;stroke-width:1.0;"/><!--MD5=[3d80d5a566f97b014ce198b951e0d37d]
reverse link OnInit to BerryComponent--><path d="M3636.93,131.147 C3656.32,173.808 3686.57,240.36 3707.94,287.369 " fill="none" id="OnInit-backto-BerryComponent" style="stroke:#A80036;stroke-width:1.0;stroke-dasharray:7.0,7.0;"/><polygon fill="none" points="3630.52,133.952,3628.61,112.848,3643.26,128.159,3630.52,133.952" style="stroke:#A80036;stroke-width:1.0;"/><!--MD5=[9442ce6031e7737b4d414bf483ce2f95]
reverse link OnInit to PokeItemComponent--><path d="M3669.82,120.939 C3715.21,148.803 3782.7,191.005 3840,230 C3848.9,236.055 3858.02,242.385 3867.16,248.824 " fill="none" id="OnInit-backto-PokeItemComponent" style="stroke:#A80036;stroke-width:1.0;stroke-dasharray:7.0,7.0;"/><polygon fill="none" points="3666.1,126.869,3652.69,110.462,3673.4,114.926,3666.1,126.869" style="stroke:#A80036;stroke-width:1.0;"/><!--MD5=[948898d11250c7c2436d0d0591bbdc47]
reverse link OnInit to LogInComponent--><path d="M3672.95,93.965 C3773.61,104.241 3991.54,136.363 4147,230 C4168.76,243.106 4188.76,262.09 4205.28,280.742 " fill="none" id="OnInit-backto-LogInComponent" style="stroke:#A80036;stroke-width:1.0;stroke-dasharray:7.0,7.0;"/><polygon fill="none" points="3672,100.906,3652.75,92.04,3673.33,86.969,3672,100.906" style="stroke:#A80036;stroke-width:1.0;"/><!--MD5=[c5afd512f7dff66b5ef2e6e109459813]
reverse link OnInit to NotfoundComponent--><path d="M3673.03,95.235 C3823.24,111.63 4236.89,161.932 4354,230 C4388.3,249.934 4416.16,286.783 4432.87,312.87 " fill="none" id="OnInit-backto-NotfoundComponent" style="stroke:#A80036;stroke-width:1.0;stroke-dasharray:7.0,7.0;"/><polygon fill="none" points="3671.98,102.163,3652.84,93.064,3673.48,88.243,3671.98,102.163" style="stroke:#A80036;stroke-width:1.0;"/><!--MD5=[9bba30aeed692678e5aa6232e63f5f0f]
reverse link CanActivate to ValidateTokenGuard--><path d="M4801.99,132.272 C4813.48,176.985 4831.47,247.032 4843.5,293.831 " fill="none" id="CanActivate-backto-ValidateTokenGuard" style="stroke:#A80036;stroke-width:1.0;stroke-dasharray:7.0,7.0;"/><polygon fill="none" points="4795.2,133.961,4797,112.848,4808.76,130.477,4795.2,133.961" style="stroke:#A80036;stroke-width:1.0;"/><!--MD5=[66a38376e606cf695223a1a9c95e8256]
reverse link CanLoad to ValidateTokenGuard--><path d="M4909.18,132.272 C4897.87,176.985 4880.15,247.032 4868.31,293.831 " fill="none" id="CanLoad-backto-ValidateTokenGuard" style="stroke:#A80036;stroke-width:1.0;stroke-dasharray:7.0,7.0;"/><polygon fill="none" points="4902.4,130.521,4914.09,112.848,4915.98,133.954,4902.4,130.521" style="stroke:#A80036;stroke-width:1.0;"/><!--MD5=[6b88f3a841b84d02410f7e752e32cee2]
reverse link OnInit to HeaderComponent--><path d="M3672.92,93.063 C3848.14,105.161 4391.32,148.517 4545,230 C4570.61,243.581 4593.27,265.992 4610.84,287.252 " fill="none" id="OnInit-backto-HeaderComponent" style="stroke:#A80036;stroke-width:1.0;stroke-dasharray:7.0,7.0;"/><polygon fill="none" points="3672.23,100.032,3652.75,91.697,3673.17,86.064,3672.23,100.032" style="stroke:#A80036;stroke-width:1.0;"/><!--MD5=[8a687dd8625e3fcd0246412275bfa297]
link User to AuthResponse--><!--MD5=[95bd9a45e80941f1bb18036693219cb7]
link AuthResponse to AuthService--><!--MD5=[17f7a07acfeaff95f503090de62d1015]
link AuthService to RegionService--><!--MD5=[1c88cda4180a653f605702321d340768]
link User to TeamMember--><!--MD5=[e4fa77e10f976045b24fe7eb68f8dd9d]
link TeamMember to Pokemonid--><!--MD5=[9beb3ce2cab723e023e4ade2e8a49cbb]
link Pokemonid to PokemonService--><!--MD5=[aae3b7e5382c0ecba54368af5c31fd07]
link PokemonService to LocationsService--><!--MD5=[c2319098a7ce4ce0ad7ff935dc70b5bb]
link TeamMember to BerryService--><!--MD5=[314b80c1dcc40edea3f5314b91beb797]
link BerryService to Itemid--><!--MD5=[ff74de2d00085cfce3d5376305e078d9]
link Itemid to ItemService--><!--MD5=[0c515ee65aeb0a5d10a1cdb5451a178b]
link ItemService to AppRoutingModule--><!--MD5=[e56430f072c7a715b9496694d50821e6]
link BerryService to AppComponent--><!--MD5=[669290074e43ea6fd062bac2129d132f]
link AppComponent to MaterialModule--><!--MD5=[e8dd158fe984e16a4a0b135350b13e5f]
link MaterialModule to AppModule--><!--MD5=[cf6c01dadb0777b64cfcc93f87424426]
@startuml
interface User {
    +username?: string | undefined
    +email?: string | undefined
}
interface AuthResponse {
    +token?: string | undefined
}
class AuthService {
    -authBaseUrl: string
    -_usuario: User
    +usuario: { username?: string | undefined; email?: string | undefined; }
    -http: HttpClient
    -router: Router
    +login(username: string, password: string): Observable<AuthResponse>
    +logout(): Observable<Object>
    +token: string | null
    +isAuthenticated(): boolean
}
class RegionService {
    +baseUrl: string
    -headers: HttpHeaders
    -http: HttpClient
    -authService: AuthService
    +getRegions(): Observable<any>
}
class RegionComponent implements OnInit {
    +data: any
    -locationservice: RegionService
    -router: Router
    +ngOnInit(): void
    +getRegions(): void
    +getRow(index: number): void
}
interface TeamMember {
    +id: number
    +userId: number
    +pokemonId: number
}
interface Pokemonid {
    +id: number
    +name: string
    +sprites: { back_female: string; back_shiny_female: string; back_default: string; front_female: string; front_shiny_female: string; back_shiny: string; front_default: string; front_shiny: string; }
    +height: number
    +weight: number
    +types: [{ slot: number; type: {    "name": string;    "url": string;}; }]
}
class PokemonService {
    -baseUrl: string
    -headers: HttpHeaders
    -http: HttpClient
    -authService: AuthService
    +getPokemons(index: number): Observable<Pokemonid>
    +getMyTeamPokemons(): Observable<TeamMember[]>
    +addPokemonToMyTeamPokemons(pokemonId: number): Observable<TeamMember>
    +removePokemonFromMyTeamPokemons(pokemonId: number): Observable<TeamMember>
    +isThereSpace(): boolean
}
class PokeDetailComponent implements OnInit {
    +pokemon: any
    +pokemonImg: string
    -pokemonService: PokemonService
    -activatedRouter: ActivatedRoute
    +ngOnInit(): void
    +getPokemon(id: any): void
}
class MyTeamComponent implements OnInit {
    +pokemonTeamMembers: Pokemonid[]
    -pokemonService: PokemonService
    +ngOnInit(): void
    +removeFromTeam(id: number): void
    +getMyTeam(): void
    +getPokemon(id: number): Observable<Pokemonid>
}
class PokeTableComponent implements OnInit {
    +displayedColumns: string[]
    +data: Pokemonid[]
    +dataSource: MatTableDataSource<any>
    +pokemons: never[]
    +paginator: MatPaginator
    +table: Pokemonid
    +pokemonTeamMembers: Pokemonid[]
    -pokeService: PokemonService
    -router: Router
    +ngOnInit(): void
    +getPokemons(): void
    +applyFilter(event: Event): void
    +getRow(id: number): void
    +addPokemonToTeam(id: number): void
}
class LocationsService {
    +baseUrl: string
    -http: HttpClient
    +getLocations(index: number): Observable<any>
}
class LocationComponent implements OnInit {
    +location: any
    -locations: LocationsService
    -activatedRouter: ActivatedRoute
    +ngOnInit(): void
    +getLocations(id: any): void
}
class BerryService {
    +baseUrl: string
    -headers: HttpHeaders
    -http: HttpClient
    -authService: AuthService
    +getBerries(): Observable<any>
}
class BerryComponent implements OnInit {
    +data: any
    -berryservice: BerryService
    -router: Router
    +ngOnInit(): void
    +getBerries(): void
}
interface Itemid {
    +id: number
    +name: string
    +names: { language: {    "name": string;}; name: string; }[]
    +cost: number
    +sprites: { default: string; }
    +effect_entries: { effect: string; }[]
}
class ItemService {
    -headers: HttpHeaders
    -http: HttpClient
    -authService: AuthService
    +getItems(index: number): Observable<Itemid>
}
class PokeItemComponent implements OnInit {
    +displayedColumns: string[]
    +data: Itemid[]
    +dataSource: MatTableDataSource<Itemid>
    +paginator: MatPaginator
    +table: Itemid
    -itemService: ItemService
    -router: Router
    +ngOnInit(): void
    +listItems: () => void
    +filterResults: (event: Event) => void
    +seeItemDetail(row: any): void
}
class LogInComponent implements OnInit {
    +logInForm: FormGroup
    -formB: FormBuilder
    -authService: AuthService
    -router: Router
    +ngOnInit(): void
    +login(): void
}
class NotfoundComponent implements OnInit {
    +ngOnInit(): void
}
class ValidateTokenGuard implements CanActivate, CanLoad {
    -authService: AuthService
    -router: Router
    +canActivate(): boolean
    +canLoad(): boolean
}
class AppRoutingModule
class AppComponent {
    +title: string
    +mostrarHead: boolean
    -router: Router
}
class HeaderComponent implements OnInit {
    -router: Router
    -authService: AuthService
    +ngOnInit(): void
    +home(): void
    +logout(): Subscription
}
class MaterialModule
class AppModule
@enduml

PlantUML version 1.2021.16beta3(Unknown compile time)
(GPL source distribution)
Java Runtime: Java(TM) SE Runtime Environment
JVM: Java HotSpot(TM) 64-Bit Server VM
Default Encoding: UTF-8
Language: en
Country: US
--></g></svg>