<?xml version="1.0" encoding="UTF-8" standalone="no"?>
<!DOCTYPE svg PUBLIC "-//W3C//DTD SVG 1.1//EN"
 "http://www.w3.org/Graphics/SVG/1.1/DTD/svg11.dtd">
<!-- Generated by graphviz version 2.47.3 (20210619.1520)
 -->
<!-- Title: dependencies Pages: 1 -->
<svg width="2044pt" height="247pt"
 viewBox="0.00 0.00 2044.00 246.80" xmlns="http://www.w3.org/2000/svg" xmlns:xlink="http://www.w3.org/1999/xlink">
<g id="graph0" class="graph" transform="scale(1 1) rotate(0) translate(4 242.8)">
<title>dependencies</title>
<polygon fill="white" stroke="transparent" points="-4,4 -4,-242.8 2040,-242.8 2040,4 -4,4"/>
<text text-anchor="middle" x="1018" y="-8.2" font-family="sans-serif" font-size="14.00">dependencies</text>
<g id="clust1" class="cluster">
<title>cluster_AppModule</title>
<polygon fill="none" stroke="black" stroke-dasharray="1,5" points="8,-32.8 8,-230.8 2028,-230.8 2028,-32.8 8,-32.8"/>
</g>
<g id="clust15" class="cluster">
<title>cluster_AppModule_imports</title>
<polygon fill="none" stroke="black" points="1751,-40.8 1751,-92.8 2020,-92.8 2020,-40.8 1751,-40.8"/>
</g>
<g id="clust17" class="cluster">
<title>cluster_AppModule_bootstrap</title>
<polygon fill="none" stroke="black" points="1006,-170.8 1006,-222.8 1130,-222.8 1130,-170.8 1006,-170.8"/>
</g>
<g id="clust2" class="cluster">
<title>cluster_AppModule_declarations</title>
<polygon fill="none" stroke="black" points="16,-40.8 16,-92.8 1743,-92.8 1743,-40.8 16,-40.8"/>
</g>
<!-- AppComponent -->
<g id="node1" class="node">
<title>AppComponent</title>
<polygon fill="#ffffb3" stroke="black" points="1734.94,-84.8 1629.06,-84.8 1629.06,-48.8 1734.94,-48.8 1734.94,-84.8"/>
<text text-anchor="middle" x="1682" y="-62.6" font-family="Times,serif" font-size="14.00">AppComponent</text>
</g>
<!-- AppModule -->
<g id="node13" class="node">
<title>AppModule</title>
<polygon fill="#8dd3c7" stroke="black" points="1109.66,-149.8 1106.66,-153.8 1085.66,-153.8 1082.66,-149.8 1026.34,-149.8 1026.34,-113.8 1109.66,-113.8 1109.66,-149.8"/>
<text text-anchor="middle" x="1068" y="-127.6" font-family="Times,serif" font-size="14.00">AppModule</text>
</g>
<!-- AppComponent&#45;&gt;AppModule -->
<g id="edge1" class="edge">
<title>AppComponent&#45;&gt;AppModule</title>
<path fill="none" stroke="black" d="M1682,-85.02C1682,-105.17 1682,-134.8 1682,-134.8 1682,-134.8 1119.72,-134.8 1119.72,-134.8"/>
<polygon fill="black" stroke="black" points="1119.72,-131.3 1109.72,-134.8 1119.72,-138.3 1119.72,-131.3"/>
</g>
<!-- BerryComponent -->
<g id="node2" class="node">
<title>BerryComponent</title>
<polygon fill="#ffffb3" stroke="black" points="1611.7,-84.8 1498.3,-84.8 1498.3,-48.8 1611.7,-48.8 1611.7,-84.8"/>
<text text-anchor="middle" x="1555" y="-62.6" font-family="Times,serif" font-size="14.00">BerryComponent</text>
</g>
<!-- BerryComponent&#45;&gt;AppModule -->
<g id="edge2" class="edge">
<title>BerryComponent&#45;&gt;AppModule</title>
<path fill="none" stroke="black" d="M1555,-85.02C1555,-103.63 1555,-129.8 1555,-129.8 1555,-129.8 1119.94,-129.8 1119.94,-129.8"/>
<polygon fill="black" stroke="black" points="1119.94,-126.3 1109.94,-129.8 1119.94,-133.3 1119.94,-126.3"/>
</g>
<!-- FooterComponent -->
<g id="node3" class="node">
<title>FooterComponent</title>
<polygon fill="#ffffb3" stroke="black" points="1479.88,-84.8 1362.12,-84.8 1362.12,-48.8 1479.88,-48.8 1479.88,-84.8"/>
<text text-anchor="middle" x="1421" y="-62.6" font-family="Times,serif" font-size="14.00">FooterComponent</text>
</g>
<!-- FooterComponent&#45;&gt;AppModule -->
<g id="edge3" class="edge">
<title>FooterComponent&#45;&gt;AppModule</title>
<path fill="none" stroke="black" d="M1421,-84.83C1421,-101.86 1421,-124.8 1421,-124.8 1421,-124.8 1119.88,-124.8 1119.88,-124.8"/>
<polygon fill="black" stroke="black" points="1119.88,-121.3 1109.88,-124.8 1119.88,-128.3 1119.88,-121.3"/>
</g>
<!-- HeaderComponent -->
<g id="node4" class="node">
<title>HeaderComponent</title>
<polygon fill="#ffffb3" stroke="black" points="1343.74,-84.8 1222.26,-84.8 1222.26,-48.8 1343.74,-48.8 1343.74,-84.8"/>
<text text-anchor="middle" x="1283" y="-62.6" font-family="Times,serif" font-size="14.00">HeaderComponent</text>
</g>
<!-- HeaderComponent&#45;&gt;AppModule -->
<g id="edge4" class="edge">
<title>HeaderComponent&#45;&gt;AppModule</title>
<path fill="none" stroke="black" d="M1283,-85.04C1283,-100.37 1283,-119.8 1283,-119.8 1283,-119.8 1119.71,-119.8 1119.71,-119.8"/>
<polygon fill="black" stroke="black" points="1119.71,-116.3 1109.71,-119.8 1119.71,-123.3 1119.71,-116.3"/>
</g>
<!-- LocationComponent -->
<g id="node5" class="node">
<title>LocationComponent</title>
<polygon fill="#ffffb3" stroke="black" points="1204.6,-84.8 1073.4,-84.8 1073.4,-48.8 1204.6,-48.8 1204.6,-84.8"/>
<text text-anchor="middle" x="1139" y="-62.6" font-family="Times,serif" font-size="14.00">LocationComponent</text>
</g>
<!-- LocationComponent&#45;&gt;AppModule -->
<g id="edge5" class="edge">
<title>LocationComponent&#45;&gt;AppModule</title>
<path fill="none" stroke="black" d="M1091.64,-84.91C1091.64,-84.91 1091.64,-103.79 1091.64,-103.79"/>
<polygon fill="black" stroke="black" points="1088.14,-103.79 1091.64,-113.79 1095.14,-103.79 1088.14,-103.79"/>
</g>
<!-- LogInComponent -->
<g id="node6" class="node">
<title>LogInComponent</title>
<polygon fill="#ffffb3" stroke="black" points="1055.55,-84.8 940.45,-84.8 940.45,-48.8 1055.55,-48.8 1055.55,-84.8"/>
<text text-anchor="middle" x="998" y="-62.6" font-family="Times,serif" font-size="14.00">LogInComponent</text>
</g>
<!-- LogInComponent&#45;&gt;AppModule -->
<g id="edge6" class="edge">
<title>LogInComponent&#45;&gt;AppModule</title>
<path fill="none" stroke="black" d="M1040.97,-84.91C1040.97,-84.91 1040.97,-103.79 1040.97,-103.79"/>
<polygon fill="black" stroke="black" points="1037.47,-103.79 1040.97,-113.79 1044.47,-103.79 1037.47,-103.79"/>
</g>
<!-- MyTeamComponent -->
<g id="node7" class="node">
<title>MyTeamComponent</title>
<polygon fill="#ffffb3" stroke="black" points="922.15,-84.8 789.85,-84.8 789.85,-48.8 922.15,-48.8 922.15,-84.8"/>
<text text-anchor="middle" x="856" y="-62.6" font-family="Times,serif" font-size="14.00">MyTeamComponent</text>
</g>
<!-- MyTeamComponent&#45;&gt;AppModule -->
<g id="edge7" class="edge">
<title>MyTeamComponent&#45;&gt;AppModule</title>
<path fill="none" stroke="black" d="M856,-85.04C856,-100.37 856,-119.8 856,-119.8 856,-119.8 1016.12,-119.8 1016.12,-119.8"/>
<polygon fill="black" stroke="black" points="1016.12,-123.3 1026.12,-119.8 1016.12,-116.3 1016.12,-123.3"/>
</g>
<!-- NotfoundComponent -->
<g id="node8" class="node">
<title>NotfoundComponent</title>
<polygon fill="#ffffb3" stroke="black" points="771.49,-84.8 636.51,-84.8 636.51,-48.8 771.49,-48.8 771.49,-84.8"/>
<text text-anchor="middle" x="704" y="-62.6" font-family="Times,serif" font-size="14.00">NotfoundComponent</text>
</g>
<!-- NotfoundComponent&#45;&gt;AppModule -->
<g id="edge8" class="edge">
<title>NotfoundComponent&#45;&gt;AppModule</title>
<path fill="none" stroke="black" d="M704,-84.83C704,-101.86 704,-124.8 704,-124.8 704,-124.8 1016.24,-124.8 1016.24,-124.8"/>
<polygon fill="black" stroke="black" points="1016.24,-128.3 1026.24,-124.8 1016.24,-121.3 1016.24,-128.3"/>
</g>
<!-- PokeDetailComponent -->
<g id="node9" class="node">
<title>PokeDetailComponent</title>
<polygon fill="#ffffb3" stroke="black" points="618.54,-84.8 475.46,-84.8 475.46,-48.8 618.54,-48.8 618.54,-84.8"/>
<text text-anchor="middle" x="547" y="-62.6" font-family="Times,serif" font-size="14.00">PokeDetailComponent</text>
</g>
<!-- PokeDetailComponent&#45;&gt;AppModule -->
<g id="edge9" class="edge">
<title>PokeDetailComponent&#45;&gt;AppModule</title>
<path fill="none" stroke="black" d="M547,-85.02C547,-103.63 547,-129.8 547,-129.8 547,-129.8 1016.25,-129.8 1016.25,-129.8"/>
<polygon fill="black" stroke="black" points="1016.25,-133.3 1026.25,-129.8 1016.25,-126.3 1016.25,-133.3"/>
</g>
<!-- PokeItemComponent -->
<g id="node10" class="node">
<title>PokeItemComponent</title>
<polygon fill="#ffffb3" stroke="black" points="457.49,-84.8 322.51,-84.8 322.51,-48.8 457.49,-48.8 457.49,-84.8"/>
<text text-anchor="middle" x="390" y="-62.6" font-family="Times,serif" font-size="14.00">PokeItemComponent</text>
</g>
<!-- PokeItemComponent&#45;&gt;AppModule -->
<g id="edge10" class="edge">
<title>PokeItemComponent&#45;&gt;AppModule</title>
<path fill="none" stroke="black" d="M390,-85.02C390,-105.17 390,-134.8 390,-134.8 390,-134.8 1016.1,-134.8 1016.1,-134.8"/>
<polygon fill="black" stroke="black" points="1016.1,-138.3 1026.1,-134.8 1016.1,-131.3 1016.1,-138.3"/>
</g>
<!-- PokeTableComponent -->
<g id="node11" class="node">
<title>PokeTableComponent</title>
<polygon fill="#ffffb3" stroke="black" points="304.7,-84.8 163.3,-84.8 163.3,-48.8 304.7,-48.8 304.7,-84.8"/>
<text text-anchor="middle" x="234" y="-62.6" font-family="Times,serif" font-size="14.00">PokeTableComponent</text>
</g>
<!-- PokeTableComponent&#45;&gt;AppModule -->
<g id="edge11" class="edge">
<title>PokeTableComponent&#45;&gt;AppModule</title>
<path fill="none" stroke="black" d="M234,-84.84C234,-106.46 234,-139.8 234,-139.8 234,-139.8 1016.07,-139.8 1016.07,-139.8"/>
<polygon fill="black" stroke="black" points="1016.07,-143.3 1026.07,-139.8 1016.07,-136.3 1016.07,-143.3"/>
</g>
<!-- RegionComponent -->
<g id="node12" class="node">
<title>RegionComponent</title>
<polygon fill="#ffffb3" stroke="black" points="145.77,-84.8 24.23,-84.8 24.23,-48.8 145.77,-48.8 145.77,-84.8"/>
<text text-anchor="middle" x="85" y="-62.6" font-family="Times,serif" font-size="14.00">RegionComponent</text>
</g>
<!-- RegionComponent&#45;&gt;AppModule -->
<g id="edge12" class="edge">
<title>RegionComponent&#45;&gt;AppModule</title>
<path fill="none" stroke="black" d="M85,-84.89C85,-107.93 85,-144.8 85,-144.8 85,-144.8 1016.08,-144.8 1016.08,-144.8"/>
<polygon fill="black" stroke="black" points="1016.08,-148.3 1026.08,-144.8 1016.08,-141.3 1016.08,-148.3"/>
</g>
<!-- AppComponent  -->
<g id="node16" class="node">
<title>AppComponent </title>
<polygon fill="#80b1d3" stroke="black" points="1122.44,-214.8 1013.56,-214.8 1013.56,-178.8 1122.44,-178.8 1122.44,-214.8"/>
<text text-anchor="middle" x="1068" y="-192.6" font-family="Times,serif" font-size="14.00">AppComponent </text>
</g>
<!-- AppModule&#45;&gt;AppComponent  -->
<g id="edge15" class="edge">
<title>AppModule&#45;&gt;AppComponent </title>
<path fill="none" stroke="black" stroke-dasharray="1,5" d="M1068,-149.91C1068,-149.91 1068,-168.79 1068,-168.79"/>
<polygon fill="black" stroke="black" points="1064.5,-168.79 1068,-178.79 1071.5,-168.79 1064.5,-168.79"/>
</g>
<!-- AppRoutingModule -->
<g id="node14" class="node">
<title>AppRoutingModule</title>
<polygon fill="#8dd3c7" stroke="black" points="2012.27,-84.8 2009.27,-88.8 1988.27,-88.8 1985.27,-84.8 1883.73,-84.8 1883.73,-48.8 2012.27,-48.8 2012.27,-84.8"/>
<text text-anchor="middle" x="1948" y="-62.6" font-family="Times,serif" font-size="14.00">AppRoutingModule</text>
</g>
<!-- AppRoutingModule&#45;&gt;AppModule -->
<g id="edge13" class="edge">
<title>AppRoutingModule&#45;&gt;AppModule</title>
<path fill="none" stroke="black" d="M1948,-84.89C1948,-107.93 1948,-144.8 1948,-144.8 1948,-144.8 1119.85,-144.8 1119.85,-144.8"/>
<polygon fill="black" stroke="black" points="1119.85,-141.3 1109.85,-144.8 1119.85,-148.3 1119.85,-141.3"/>
</g>
<!-- MaterialModule -->
<g id="node15" class="node">
<title>MaterialModule</title>
<polygon fill="#8dd3c7" stroke="black" points="1865.47,-84.8 1862.47,-88.8 1841.47,-88.8 1838.47,-84.8 1758.53,-84.8 1758.53,-48.8 1865.47,-48.8 1865.47,-84.8"/>
<text text-anchor="middle" x="1812" y="-62.6" font-family="Times,serif" font-size="14.00">MaterialModule</text>
</g>
<!-- MaterialModule&#45;&gt;AppModule -->
<g id="edge14" class="edge">
<title>MaterialModule&#45;&gt;AppModule</title>
<path fill="none" stroke="black" d="M1812,-84.84C1812,-106.46 1812,-139.8 1812,-139.8 1812,-139.8 1119.86,-139.8 1119.86,-139.8"/>
<polygon fill="black" stroke="black" points="1119.86,-136.3 1109.86,-139.8 1119.86,-143.3 1119.86,-136.3"/>
</g>
</g>
</svg>
