<?xml version="1.0" encoding="UTF-8" standalone="no"?>
<!DOCTYPE svg PUBLIC "-//W3C//DTD SVG 1.1//EN"
 "http://www.w3.org/Graphics/SVG/1.1/DTD/svg11.dtd">
<!-- Generated by graphviz version 2.47.3 (20210619.1520)
 -->
<!-- Title: dependencies Pages: 1 -->
<svg width="1907pt" height="247pt"
 viewBox="0.00 0.00 1907.00 246.80" xmlns="http://www.w3.org/2000/svg" xmlns:xlink="http://www.w3.org/1999/xlink">
<g id="graph0" class="graph" transform="scale(1 1) rotate(0) translate(4 242.8)">
<title>dependencies</title>
<polygon fill="white" stroke="transparent" points="-4,4 -4,-242.8 1903,-242.8 1903,4 -4,4"/>
<text text-anchor="middle" x="949.5" y="-8.2" font-family="sans-serif" font-size="14.00">dependencies</text>
<g id="clust1" class="cluster">
<title>cluster_AppModule</title>
<polygon fill="none" stroke="black" stroke-dasharray="1,5" points="8,-32.8 8,-230.8 1891,-230.8 1891,-32.8 8,-32.8"/>
</g>
<g id="clust14" class="cluster">
<title>cluster_AppModule_imports</title>
<polygon fill="none" stroke="black" points="1614,-40.8 1614,-92.8 1883,-92.8 1883,-40.8 1614,-40.8"/>
</g>
<g id="clust16" class="cluster">
<title>cluster_AppModule_bootstrap</title>
<polygon fill="none" stroke="black" points="936,-170.8 936,-222.8 1060,-222.8 1060,-170.8 936,-170.8"/>
</g>
<g id="clust2" class="cluster">
<title>cluster_AppModule_declarations</title>
<polygon fill="none" stroke="black" points="16,-40.8 16,-92.8 1606,-92.8 1606,-40.8 16,-40.8"/>
</g>
<!-- AppComponent -->
<g id="node1" class="node">
<title>AppComponent</title>
<polygon fill="#ffffb3" stroke="black" points="1597.94,-84.8 1492.06,-84.8 1492.06,-48.8 1597.94,-48.8 1597.94,-84.8"/>
<text text-anchor="middle" x="1545" y="-62.6" font-family="Times,serif" font-size="14.00">AppComponent</text>
</g>
<!-- AppModule -->
<g id="node12" class="node">
<title>AppModule</title>
<polygon fill="#8dd3c7" stroke="black" points="1039.66,-149.8 1036.66,-153.8 1015.66,-153.8 1012.66,-149.8 956.34,-149.8 956.34,-113.8 1039.66,-113.8 1039.66,-149.8"/>
<text text-anchor="middle" x="998" y="-127.6" font-family="Times,serif" font-size="14.00">AppModule</text>
</g>
<!-- AppComponent&#45;&gt;AppModule -->
<g id="edge1" class="edge">
<title>AppComponent&#45;&gt;AppModule</title>
<path fill="none" stroke="black" d="M1545,-85.02C1545,-105.17 1545,-134.8 1545,-134.8 1545,-134.8 1050.01,-134.8 1050.01,-134.8"/>
<polygon fill="black" stroke="black" points="1050.01,-131.3 1040.01,-134.8 1050.01,-138.3 1050.01,-131.3"/>
</g>
<!-- BerryComponent -->
<g id="node2" class="node">
<title>BerryComponent</title>
<polygon fill="#ffffb3" stroke="black" points="1474.7,-84.8 1361.3,-84.8 1361.3,-48.8 1474.7,-48.8 1474.7,-84.8"/>
<text text-anchor="middle" x="1418" y="-62.6" font-family="Times,serif" font-size="14.00">BerryComponent</text>
</g>
<!-- BerryComponent&#45;&gt;AppModule -->
<g id="edge2" class="edge">
<title>BerryComponent&#45;&gt;AppModule</title>
<path fill="none" stroke="black" d="M1418,-85.02C1418,-103.63 1418,-129.8 1418,-129.8 1418,-129.8 1049.81,-129.8 1049.81,-129.8"/>
<polygon fill="black" stroke="black" points="1049.81,-126.3 1039.81,-129.8 1049.81,-133.3 1049.81,-126.3"/>
</g>
<!-- HeaderComponent -->
<g id="node3" class="node">
<title>HeaderComponent</title>
<polygon fill="#ffffb3" stroke="black" points="1343.74,-84.8 1222.26,-84.8 1222.26,-48.8 1343.74,-48.8 1343.74,-84.8"/>
<text text-anchor="middle" x="1283" y="-62.6" font-family="Times,serif" font-size="14.00">HeaderComponent</text>
</g>
<!-- HeaderComponent&#45;&gt;AppModule -->
<g id="edge3" class="edge">
<title>HeaderComponent&#45;&gt;AppModule</title>
<path fill="none" stroke="black" d="M1283,-84.83C1283,-101.86 1283,-124.8 1283,-124.8 1283,-124.8 1049.75,-124.8 1049.75,-124.8"/>
<polygon fill="black" stroke="black" points="1049.75,-121.3 1039.75,-124.8 1049.75,-128.3 1049.75,-121.3"/>
</g>
<!-- LocationComponent -->
<g id="node4" class="node">
<title>LocationComponent</title>
<polygon fill="#ffffb3" stroke="black" points="1204.6,-84.8 1073.4,-84.8 1073.4,-48.8 1204.6,-48.8 1204.6,-84.8"/>
<text text-anchor="middle" x="1139" y="-62.6" font-family="Times,serif" font-size="14.00">LocationComponent</text>
</g>
<!-- LocationComponent&#45;&gt;AppModule -->
<g id="edge4" class="edge">
<title>LocationComponent&#45;&gt;AppModule</title>
<path fill="none" stroke="black" d="M1139,-85.04C1139,-100.37 1139,-119.8 1139,-119.8 1139,-119.8 1049.92,-119.8 1049.92,-119.8"/>
<polygon fill="black" stroke="black" points="1049.92,-116.3 1039.92,-119.8 1049.92,-123.3 1049.92,-116.3"/>
</g>
<!-- LogInComponent -->
<g id="node5" class="node">
<title>LogInComponent</title>
<polygon fill="#ffffb3" stroke="black" points="1055.55,-84.8 940.45,-84.8 940.45,-48.8 1055.55,-48.8 1055.55,-84.8"/>
<text text-anchor="middle" x="998" y="-62.6" font-family="Times,serif" font-size="14.00">LogInComponent</text>
</g>
<!-- LogInComponent&#45;&gt;AppModule -->
<g id="edge5" class="edge">
<title>LogInComponent&#45;&gt;AppModule</title>
<path fill="none" stroke="black" d="M998,-84.91C998,-84.91 998,-103.79 998,-103.79"/>
<polygon fill="black" stroke="black" points="994.5,-103.79 998,-113.79 1001.5,-103.79 994.5,-103.79"/>
</g>
<!-- MyTeamComponent -->
<g id="node6" class="node">
<title>MyTeamComponent</title>
<polygon fill="#ffffb3" stroke="black" points="922.15,-84.8 789.85,-84.8 789.85,-48.8 922.15,-48.8 922.15,-84.8"/>
<text text-anchor="middle" x="856" y="-62.6" font-family="Times,serif" font-size="14.00">MyTeamComponent</text>
</g>
<!-- MyTeamComponent&#45;&gt;AppModule -->
<g id="edge6" class="edge">
<title>MyTeamComponent&#45;&gt;AppModule</title>
<path fill="none" stroke="black" d="M856,-85.04C856,-100.37 856,-119.8 856,-119.8 856,-119.8 946.16,-119.8 946.16,-119.8"/>
<polygon fill="black" stroke="black" points="946.16,-123.3 956.16,-119.8 946.16,-116.3 946.16,-123.3"/>
</g>
<!-- NotfoundComponent -->
<g id="node7" class="node">
<title>NotfoundComponent</title>
<polygon fill="#ffffb3" stroke="black" points="771.49,-84.8 636.51,-84.8 636.51,-48.8 771.49,-48.8 771.49,-84.8"/>
<text text-anchor="middle" x="704" y="-62.6" font-family="Times,serif" font-size="14.00">NotfoundComponent</text>
</g>
<!-- NotfoundComponent&#45;&gt;AppModule -->
<g id="edge7" class="edge">
<title>NotfoundComponent&#45;&gt;AppModule</title>
<path fill="none" stroke="black" d="M704,-84.83C704,-101.86 704,-124.8 704,-124.8 704,-124.8 946.19,-124.8 946.19,-124.8"/>
<polygon fill="black" stroke="black" points="946.19,-128.3 956.19,-124.8 946.19,-121.3 946.19,-128.3"/>
</g>
<!-- PokeDetailComponent -->
<g id="node8" class="node">
<title>PokeDetailComponent</title>
<polygon fill="#ffffb3" stroke="black" points="618.54,-84.8 475.46,-84.8 475.46,-48.8 618.54,-48.8 618.54,-84.8"/>
<text text-anchor="middle" x="547" y="-62.6" font-family="Times,serif" font-size="14.00">PokeDetailComponent</text>
</g>
<!-- PokeDetailComponent&#45;&gt;AppModule -->
<g id="edge8" class="edge">
<title>PokeDetailComponent&#45;&gt;AppModule</title>
<path fill="none" stroke="black" d="M547,-85.02C547,-103.63 547,-129.8 547,-129.8 547,-129.8 945.98,-129.8 945.98,-129.8"/>
<polygon fill="black" stroke="black" points="945.98,-133.3 955.98,-129.8 945.98,-126.3 945.98,-133.3"/>
</g>
<!-- PokeItemComponent -->
<g id="node9" class="node">
<title>PokeItemComponent</title>
<polygon fill="#ffffb3" stroke="black" points="457.49,-84.8 322.51,-84.8 322.51,-48.8 457.49,-48.8 457.49,-84.8"/>
<text text-anchor="middle" x="390" y="-62.6" font-family="Times,serif" font-size="14.00">PokeItemComponent</text>
</g>
<!-- PokeItemComponent&#45;&gt;AppModule -->
<g id="edge9" class="edge">
<title>PokeItemComponent&#45;&gt;AppModule</title>
<path fill="none" stroke="black" d="M390,-85.02C390,-105.17 390,-134.8 390,-134.8 390,-134.8 946.21,-134.8 946.21,-134.8"/>
<polygon fill="black" stroke="black" points="946.21,-138.3 956.21,-134.8 946.21,-131.3 946.21,-138.3"/>
</g>
<!-- PokeTableComponent -->
<g id="node10" class="node">
<title>PokeTableComponent</title>
<polygon fill="#ffffb3" stroke="black" points="304.7,-84.8 163.3,-84.8 163.3,-48.8 304.7,-48.8 304.7,-84.8"/>
<text text-anchor="middle" x="234" y="-62.6" font-family="Times,serif" font-size="14.00">PokeTableComponent</text>
</g>
<!-- PokeTableComponent&#45;&gt;AppModule -->
<g id="edge10" class="edge">
<title>PokeTableComponent&#45;&gt;AppModule</title>
<path fill="none" stroke="black" d="M234,-84.84C234,-106.46 234,-139.8 234,-139.8 234,-139.8 946.11,-139.8 946.11,-139.8"/>
<polygon fill="black" stroke="black" points="946.11,-143.3 956.11,-139.8 946.11,-136.3 946.11,-143.3"/>
</g>
<!-- RegionComponent -->
<g id="node11" class="node">
<title>RegionComponent</title>
<polygon fill="#ffffb3" stroke="black" points="145.77,-84.8 24.23,-84.8 24.23,-48.8 145.77,-48.8 145.77,-84.8"/>
<text text-anchor="middle" x="85" y="-62.6" font-family="Times,serif" font-size="14.00">RegionComponent</text>
</g>
<!-- RegionComponent&#45;&gt;AppModule -->
<g id="edge11" class="edge">
<title>RegionComponent&#45;&gt;AppModule</title>
<path fill="none" stroke="black" d="M85,-84.89C85,-107.93 85,-144.8 85,-144.8 85,-144.8 946.1,-144.8 946.1,-144.8"/>
<polygon fill="black" stroke="black" points="946.1,-148.3 956.1,-144.8 946.1,-141.3 946.1,-148.3"/>
</g>
<!-- AppComponent  -->
<g id="node15" class="node">
<title>AppComponent </title>
<polygon fill="#80b1d3" stroke="black" points="1052.44,-214.8 943.56,-214.8 943.56,-178.8 1052.44,-178.8 1052.44,-214.8"/>
<text text-anchor="middle" x="998" y="-192.6" font-family="Times,serif" font-size="14.00">AppComponent </text>
</g>
<!-- AppModule&#45;&gt;AppComponent  -->
<g id="edge14" class="edge">
<title>AppModule&#45;&gt;AppComponent </title>
<path fill="none" stroke="black" stroke-dasharray="1,5" d="M998,-149.91C998,-149.91 998,-168.79 998,-168.79"/>
<polygon fill="black" stroke="black" points="994.5,-168.79 998,-178.79 1001.5,-168.79 994.5,-168.79"/>
</g>
<!-- AppRoutingModule -->
<g id="node13" class="node">
<title>AppRoutingModule</title>
<polygon fill="#8dd3c7" stroke="black" points="1875.27,-84.8 1872.27,-88.8 1851.27,-88.8 1848.27,-84.8 1746.73,-84.8 1746.73,-48.8 1875.27,-48.8 1875.27,-84.8"/>
<text text-anchor="middle" x="1811" y="-62.6" font-family="Times,serif" font-size="14.00">AppRoutingModule</text>
</g>
<!-- AppRoutingModule&#45;&gt;AppModule -->
<g id="edge12" class="edge">
<title>AppRoutingModule&#45;&gt;AppModule</title>
<path fill="none" stroke="black" d="M1811,-84.89C1811,-107.93 1811,-144.8 1811,-144.8 1811,-144.8 1049.72,-144.8 1049.72,-144.8"/>
<polygon fill="black" stroke="black" points="1049.72,-141.3 1039.72,-144.8 1049.72,-148.3 1049.72,-141.3"/>
</g>
<!-- MaterialModule -->
<g id="node14" class="node">
<title>MaterialModule</title>
<polygon fill="#8dd3c7" stroke="black" points="1728.47,-84.8 1725.47,-88.8 1704.47,-88.8 1701.47,-84.8 1621.53,-84.8 1621.53,-48.8 1728.47,-48.8 1728.47,-84.8"/>
<text text-anchor="middle" x="1675" y="-62.6" font-family="Times,serif" font-size="14.00">MaterialModule</text>
</g>
<!-- MaterialModule&#45;&gt;AppModule -->
<g id="edge13" class="edge">
<title>MaterialModule&#45;&gt;AppModule</title>
<path fill="none" stroke="black" d="M1675,-84.84C1675,-106.46 1675,-139.8 1675,-139.8 1675,-139.8 1049.84,-139.8 1049.84,-139.8"/>
<polygon fill="black" stroke="black" points="1049.84,-136.3 1039.84,-139.8 1049.84,-143.3 1049.84,-136.3"/>
</g>
</g>
</svg>
